<svg xmlns="http://www.w3.org/2000/svg" width="39" height="39" fill="none"><path fill="#f8d22e" d="M29.572 17.495a1.553 1.553 0 1 0 0-3.105 1.553 1.553 0 0 0 0 3.105Z"/><path fill="#f8d22e" d="M37.786 19.006c.67 0 1.214-.543 1.214-1.213V8.967a5.862 5.862 0 0 0-5.856-5.856h-2.35V1.227a1.213 1.213 0 1 0-2.427 0V3.12h-7.732V1.227c0-.67-.543-1.213-1.205-1.213s-1.213.543-1.213 1.213V3.12h-7.655V1.227A1.2 1.2 0 0 0 9.357.014c-.67 0-1.213.543-1.213 1.213V3.12H5.869A5.862 5.862 0 0 0 .014 8.975v24.17A5.862 5.862 0 0 0 5.869 39h11.856a1.213 1.213 0 1 0 0-2.427H5.869a3.444 3.444 0 0 1-3.437-3.437V8.966A3.444 3.444 0 0 1 5.87 5.53h2.275v1.892a1.213 1.213 0 1 0 2.427 0V5.53h7.654v1.892c0 .67.543 1.214 1.214 1.214.67 0 1.197-.552 1.197-1.214V5.53h7.73v1.892a1.213 1.213 0 1 0 2.428 0V5.53h2.35a3.444 3.444 0 0 1 3.437 3.437V17.8a1.193 1.193 0 0 0 1.205 1.205Z"/><path fill="#f8d22e" d="M29.962 20.933c-4.981 0-9.03 4.056-9.03 9.03 0 4.972 4.057 9.029 9.03 9.029 4.973 0 9.03-4.057 9.03-9.03 0-4.973-4.048-9.03-9.03-9.03Zm0 15.64c-3.649 0-6.61-2.97-6.61-6.61 0-3.642 2.97-6.612 6.61-6.612 3.65 0 6.611 2.97 6.611 6.611 0 3.64-2.962 6.611-6.61 6.611Z"/><path fill="#f8d22e" d="M29.707 25.065c-.67 0-1.213.544-1.213 1.214v4.277c0 .67.543 1.214 1.213 1.214h2.25a1.213 1.213 0 1 0 0-2.427H30.92V26.27c0-.661-.543-1.205-1.214-1.205ZM22.833 17.495a1.553 1.553 0 1 0 0-3.105 1.553 1.553 0 0 0 0 3.105ZM16.096 24.234a1.553 1.553 0 1 0 0-3.106 1.553 1.553 0 0 0 0 3.106ZM9.357 17.495a1.553 1.553 0 1 0 0-3.105 1.553 1.553 0 0 0 0 3.105ZM9.357 24.234a1.553 1.553 0 1 0 0-3.106 1.553 1.553 0 0 0 0 3.106ZM9.357 30.972a1.553 1.553 0 1 0 0-3.106 1.553 1.553 0 0 0 0 3.106ZM16.096 30.972a1.553 1.553 0 1 0 0-3.106 1.553 1.553 0 0 0 0 3.106ZM16.096 17.495a1.553 1.553 0 1 0 0-3.105 1.553 1.553 0 0 0 0 3.105Z"/></svg>