<svg width="50" height="52" viewBox="0 0 50 52" fill="none" xmlns="http://www.w3.org/2000/svg">
<g opacity="0.8" filter="url(#filter0_d)">
<rect width="50" height="50" rx="5" fill="url(#paint0_linear)"/>
</g>
<path d="M23.8942 19.4538L15.1344 27.326C14.8053 27.6217 14.625 28.0147 14.625 28.4361C14.625 28.8534 14.8053 29.2464 15.1344 29.5422C15.8152 30.1499 16.9198 30.1499 17.6005 29.5422L25.1295 22.7761L32.6585 29.5422C32.9831 29.8379 33.4204 30 33.8848 30C34.3491 30 34.7864 29.8379 35.1156 29.5422C35.4447 29.2464 35.625 28.8534 35.625 28.4361C35.625 28.0188 35.4447 27.6258 35.1156 27.33L26.3558 19.4579C26.0267 19.1621 25.5894 19.0001 25.125 19.0001C24.6606 18.996 24.2233 19.1581 23.8942 19.4538Z" fill="#262F39"/>
<defs>
<filter id="filter0_d" x="0" y="0" width="50" height="52" filterUnits="userSpaceOnUse" color-interpolation-filters="sRGB">
<feFlood flood-opacity="0" result="BackgroundImageFix"/>
<feColorMatrix in="SourceAlpha" type="matrix" values="0 0 0 0 0 0 0 0 0 0 0 0 0 0 0 0 0 0 127 0"/>
<feOffset dy="2"/>
<feColorMatrix type="matrix" values="0 0 0 0 1 0 0 0 0 1 0 0 0 0 1 0 0 0 1 0"/>
<feBlend mode="normal" in2="BackgroundImageFix" result="effect1_dropShadow"/>
<feBlend mode="normal" in="SourceGraphic" in2="effect1_dropShadow" result="shape"/>
</filter>
<linearGradient id="paint0_linear" x1="25" y1="0" x2="25" y2="50" gradientUnits="userSpaceOnUse">
<stop stop-color="#FDFDFD"/>
<stop offset="1" stop-color="#E4E4E4"/>
</linearGradient>
</defs>
</svg>
