<svg width="70" height="70" viewBox="0 0 70 70" fill="none" xmlns="http://www.w3.org/2000/svg">
<g opacity="0.8">
<rect opacity="0.5" width="70" height="70" rx="15" fill="url(#paint0_linear)"/>
<g filter="url(#filter0_d)">
<rect x="4.375" y="4.26831" width="61.25" height="59.7561" rx="12" fill="url(#paint1_linear)"/>
</g>
</g>
<path d="M33.2692 29.4538L24.5094 37.326C24.1803 37.6217 24 38.0147 24 38.4361C24 38.8534 24.1803 39.2464 24.5094 39.5422C25.1902 40.1499 26.2948 40.1499 26.9755 39.5422L34.5045 32.7761L42.0335 39.5422C42.3581 39.8379 42.7954 40 43.2598 40C43.7241 40 44.1614 39.8379 44.4906 39.5422C44.8197 39.2464 45 38.8534 45 38.4361C45 38.0188 44.8197 37.6258 44.4906 37.33L35.7308 29.4579C35.4017 29.1621 34.9644 29.0001 34.5 29.0001C34.0356 28.996 33.5983 29.1581 33.2692 29.4538Z" fill="#262F39"/>
<defs>
<filter id="filter0_d" x="4.375" y="4.26831" width="61.25" height="61.7561" filterUnits="userSpaceOnUse" color-interpolation-filters="sRGB">
<feFlood flood-opacity="0" result="BackgroundImageFix"/>
<feColorMatrix in="SourceAlpha" type="matrix" values="0 0 0 0 0 0 0 0 0 0 0 0 0 0 0 0 0 0 127 0"/>
<feOffset dy="2"/>
<feColorMatrix type="matrix" values="0 0 0 0 1 0 0 0 0 1 0 0 0 0 1 0 0 0 1 0"/>
<feBlend mode="normal" in2="BackgroundImageFix" result="effect1_dropShadow"/>
<feBlend mode="normal" in="SourceGraphic" in2="effect1_dropShadow" result="shape"/>
</filter>
<linearGradient id="paint0_linear" x1="35" y1="0" x2="35" y2="70" gradientUnits="userSpaceOnUse">
<stop stop-color="#F0F0F0"/>
<stop offset="1" stop-color="#D0D0D0"/>
</linearGradient>
<linearGradient id="paint1_linear" x1="35" y1="4.26831" x2="35" y2="64.0244" gradientUnits="userSpaceOnUse">
<stop stop-color="#FDFDFD"/>
<stop offset="1" stop-color="#E4E4E4"/>
</linearGradient>
</defs>
</svg>
