<svg width="14" height="25" viewBox="0 0 14 25" fill="none" xmlns="http://www.w3.org/2000/svg">
<path opacity="0.4" d="M0.577624 11.0348L10.5967 0.606483C10.9731 0.214684 11.4733 -2.2089e-07 12.0096 -1.74007e-07C12.5407 -1.27575e-07 13.0409 0.214684 13.4173 0.606484C14.1908 1.41692 14.1908 2.73186 13.4173 3.54229L4.80596 12.5054L13.4173 21.4684C13.7937 21.8549 14 22.3755 14 22.9283C14 23.4811 13.7937 24.0017 13.4173 24.3935C13.0409 24.7853 12.5407 25 12.0096 25C11.4785 25 10.9783 24.7853 10.6019 24.3935L0.58278 13.9652C0.206355 13.5734 9.518e-05 13.0528 9.52283e-05 12.5C-0.00506123 11.9472 0.2012 11.4266 0.577624 11.0348Z" fill="white"/>
</svg>
