<svg width="47" height="45" viewBox="0 0 47 45" fill="none" xmlns="http://www.w3.org/2000/svg">
<path d="M38.7687 8.1064V3.93013C38.7638 1.87066 37.0329 0.203021 34.8903 0.198242H3.89296C1.75538 0.203021 0.0244908 1.87066 0.0195312 3.93013V20.3581C0.0244908 22.2646 1.52724 23.8606 3.4962 24.0517L6.40747 31.3387C7.1762 33.2644 9.41793 34.2201 11.4166 33.4794L29.6084 26.7276C28.3536 29.8909 28.7107 33.4412 30.5755 36.313L31.0219 37.0011V44.2546C31.0219 44.6655 31.369 45 31.7956 45H45.7469C46.1734 45 46.5205 44.6655 46.5205 44.2546V19.6031C46.5156 17.0228 45.4443 14.5476 43.5498 12.7223L38.7687 8.1064ZM38.7687 12.5742L41.1196 18.4563C41.5808 19.6127 40.9807 20.9076 39.7854 21.352L38.4414 21.8537C38.6547 21.3806 38.7687 20.8741 38.7687 20.3581V12.5742ZM1.57188 20.3581V3.93013C1.57188 2.69254 2.61339 1.68909 3.89792 1.68909H34.8953C36.1798 1.68909 37.2213 2.69254 37.2213 3.93013V8.67502H37.2164L37.2213 8.69414V20.3581C37.2164 20.4871 37.1965 20.6161 37.1668 20.7451L30.0647 13.9025C28.4677 12.4021 25.9234 12.3878 24.3165 13.8739C22.7046 15.3599 22.6104 17.8112 24.0983 19.4072L27.1236 22.5896H3.89296C2.60843 22.5991 1.57188 21.5957 1.57188 20.3581ZM11.496 24.09L5.98591 26.1351L5.17253 24.09H11.496ZM10.8562 32.0841C9.65599 32.5285 8.31195 31.9551 7.85071 30.7988L6.54138 27.5256L15.796 24.09V24.0852H28.5421L29.5489 25.1412L10.8562 32.0841ZM44.9682 43.5044H32.5692V37.5314H44.9682V43.5044ZM44.9682 36.0358H32.2221L31.8848 35.5198C29.9952 32.6098 29.9208 28.9352 31.6864 25.9583C31.8551 25.6764 31.8104 25.3228 31.5873 25.0839L25.239 18.4085C24.2917 17.4098 24.3463 15.8664 25.358 14.9299C26.3698 13.9933 27.9767 14.0077 28.9686 14.9633L41.3179 26.8566L42.414 25.8006L39.5474 23.0387L40.3409 22.7377C42.3347 21.9971 43.3315 19.8372 42.5628 17.9163L39.9392 11.3557L42.4487 13.7783C44.0507 15.3217 44.9583 17.4194 44.9632 19.6031V36.0358H44.9682Z" fill="#fbc135"/>
<path d="M8.85195 10.6527C9.9629 10.6527 10.8655 9.78318 10.8655 8.71298V5.12969C10.8655 4.05949 9.9629 3.18994 8.85195 3.18994H5.13225C4.0213 3.18994 3.11865 4.05949 3.11865 5.12969V8.71298C3.11865 9.78318 4.0213 10.6527 5.13225 10.6527H8.85195ZM4.67101 8.7082V7.66188H6.2184V6.17123H4.67101V5.12491C4.67101 4.87647 4.87931 4.67581 5.13721 4.67581H8.85691C9.11481 4.67581 9.32311 4.87647 9.32311 5.12491V6.17123H7.77076V7.66666H9.32311V8.71298C9.32311 8.96142 9.11481 9.16208 8.85691 9.16208H5.13721C4.87435 9.1573 4.67101 8.95664 4.67101 8.7082Z" fill="#fbc135"/>
<path d="M3.89258 12.8901H6.9923V14.3863H3.89258V12.8901Z" fill="#fbc135"/>
<path d="M3.89258 17.3721H6.9923V18.8682H3.89258V17.3721Z" fill="#fbc135"/>
<path d="M17.8442 17.3721H20.944V18.8682H17.8442V17.3721Z" fill="#fbc135"/>
<path d="M8.54443 12.8901H11.6442V14.3863H8.54443V12.8901Z" fill="#fbc135"/>
<path d="M13.1919 12.8901H16.2917V14.3863H13.1919V12.8901Z" fill="#fbc135"/>
<path d="M17.8442 12.8901H20.944V14.3863H17.8442V12.8901Z" fill="#fbc135"/>
<path d="M32.5688 3.93066H34.1212V6.17174H32.5688V3.93066Z" fill="#fbc135"/>
<path d="M29.4698 3.93066H31.0172V6.17174H29.4648V3.93066H29.4698Z" fill="#fbc135"/>
<path d="M26.3696 3.93066H27.922V6.17174H26.3696V3.93066Z" fill="#fbc135"/>
<path d="M23.2696 3.93066H24.817V6.17174H23.2646V3.93066H23.2696Z" fill="#fbc135"/>
<path d="M34.1172 39.0215H35.6695V40.5194H34.1172V39.0215Z" fill="#fbc135"/>
</svg>
