<svg width="48" height="48" viewBox="0 0 48 48" fill="none" xmlns="http://www.w3.org/2000/svg">
<path d="M16.1804 36.5801C16.171 36.5241 16.1522 36.4587 16.1241 36.4027C16.096 36.3466 16.0679 36.2906 16.0397 36.2439C16.0022 36.1972 15.9647 36.1411 15.9272 36.1038C15.8897 36.0664 15.8335 36.0197 15.7866 35.9917C15.7397 35.9543 15.6835 35.9263 15.6272 35.9076C15.571 35.8796 15.5147 35.8609 15.4491 35.8516C15.3272 35.8236 15.2054 35.8236 15.0835 35.8516C15.0272 35.8609 14.9616 35.8796 14.9054 35.9076C14.8491 35.9356 14.7929 35.9637 14.746 35.9917C14.6897 36.029 14.6429 36.0664 14.6054 36.1038C14.5679 36.1411 14.521 36.1972 14.4929 36.2439C14.4554 36.2906 14.4272 36.3466 14.4085 36.4027C14.3804 36.4587 14.371 36.5147 14.3522 36.5801C14.3429 36.6362 14.3335 36.7016 14.3335 36.7669C14.3335 36.823 14.3429 36.8884 14.3522 36.9537C14.3616 37.0098 14.3804 37.0752 14.4085 37.1312C14.4366 37.1873 14.4647 37.2433 14.4929 37.29C14.5304 37.3367 14.5679 37.3927 14.6054 37.4301C14.6429 37.4675 14.6991 37.5142 14.746 37.5422C14.7929 37.5795 14.8491 37.6076 14.9054 37.6262C14.9616 37.6543 15.0179 37.673 15.0835 37.6823C15.1397 37.6916 15.2054 37.701 15.2616 37.701C15.3179 37.701 15.3835 37.6916 15.4397 37.6823C15.496 37.673 15.5616 37.6543 15.6179 37.6262C15.6741 37.5982 15.7304 37.5702 15.7772 37.5422C15.8335 37.5048 15.8804 37.4675 15.9179 37.4301C15.9554 37.3927 16.0022 37.3367 16.0304 37.29C16.0679 37.2433 16.096 37.1873 16.1147 37.1312C16.1429 37.0752 16.1522 37.0191 16.171 36.9537C16.1897 36.8884 16.1897 36.8323 16.1897 36.7669C16.1897 36.7016 16.1897 36.6362 16.1804 36.5801Z" fill="#fbc135"/>
<path d="M43.1247 36.8683C43.1247 36.859 43.1154 36.8497 43.1154 36.8403C42.2529 34.8336 40.2279 34.0869 37.8373 34.8989L31.3029 36.7003C30.9279 35.5616 29.9811 34.5909 28.6498 34.0962C28.6405 34.0962 28.6311 34.0869 28.6217 34.0869L21.4405 31.6601C20.8405 30.8947 18.9749 28.9253 15.4687 28.9253C13.0218 28.9253 10.8562 30.596 9.60932 32.4255H0.937494C0.421872 32.4255 0 32.8455 0 33.3588V45.1287C0 45.6421 0.421872 46.0621 0.937494 46.0621H6.51559C7.03121 46.0621 7.45308 45.6421 7.45308 45.1287V44.326H10.0687C10.5843 44.326 11.0062 43.906 11.0062 43.3926V43.1219C12.5343 43.2526 13.0312 43.542 14.428 44.3447C15.5062 44.9607 17.128 45.8941 20.0624 47.2101C20.0718 47.2195 20.0905 47.2195 20.0999 47.2288C20.6624 47.4528 21.7592 47.7982 23.1186 47.7982C24.0655 47.7982 25.1249 47.6302 26.2217 47.1355L40.6591 41.9926C40.6873 41.9832 40.706 41.9739 40.7341 41.9646C42.1122 41.3112 44.1654 39.5284 43.1247 36.8683ZM5.57809 44.186H1.87499V34.2922H5.57809V44.186ZM9.12182 42.4499H7.45308V34.2922H9.1312V42.4499H9.12182ZM39.9841 40.2378L25.5561 45.3807C25.5467 45.3807 25.528 45.3901 25.5092 45.3994C25.4998 45.4087 25.4811 45.4087 25.4717 45.4181C23.4655 46.3421 21.553 45.7914 20.803 45.4927C17.9718 44.2233 16.4624 43.3553 15.3562 42.7206C13.8187 41.8432 13.0874 41.4139 10.9968 41.2459V33.7322C11.8874 32.2854 13.6124 30.8014 15.4687 30.8014C18.6561 30.8014 20.0061 32.8641 20.0624 32.9481C20.1749 33.1348 20.353 33.2748 20.5593 33.3402L28.0123 35.8603C29.2029 36.3083 29.8311 37.3163 29.5404 38.3337C29.4092 38.8004 29.0998 39.1924 28.6686 39.4258C28.2467 39.6591 27.7592 39.7151 27.2905 39.5938L18.8905 36.943C18.3936 36.7843 17.8686 37.055 17.7093 37.5497C17.5499 38.0444 17.8218 38.5671 18.3186 38.7257L26.728 41.3765C26.7373 41.3765 26.7467 41.3859 26.7561 41.3859C27.0936 41.4792 27.4311 41.5259 27.778 41.5259C28.3967 41.5259 29.0155 41.3672 29.5779 41.0592C30.4404 40.5832 31.0686 39.7991 31.3404 38.8471C31.3592 38.7724 31.3779 38.6977 31.3967 38.6231L38.4373 36.6817C39.4498 36.3363 40.7904 36.215 41.381 37.5777C41.9997 39.1551 40.3966 40.0325 39.9841 40.2378Z" fill="#fbc135"/>
<path d="M33.6652 12.2772C33.6558 12.2212 33.6371 12.1558 33.609 12.0998C33.5808 12.0438 33.5621 11.9877 33.5246 11.9411C33.4871 11.885 33.4496 11.8383 33.4121 11.801C33.3746 11.7636 33.3183 11.7169 33.2715 11.6889C33.2246 11.6516 33.1683 11.6236 33.1121 11.6049C33.0558 11.5769 32.9996 11.5675 32.934 11.5488C32.8121 11.5208 32.6902 11.5208 32.5684 11.5488C32.5121 11.5582 32.4465 11.5769 32.3902 11.6049C32.334 11.6329 32.2777 11.6609 32.2309 11.6889C32.184 11.7263 32.1277 11.7636 32.0902 11.801C32.0527 11.8383 32.0059 11.8944 31.9777 11.9411C31.9402 11.9877 31.9121 12.0438 31.8934 12.0998C31.8652 12.1558 31.8465 12.2119 31.8371 12.2772C31.8277 12.3333 31.8184 12.3986 31.8184 12.4547C31.8184 12.5107 31.8277 12.5761 31.8371 12.6321C31.8465 12.6881 31.8652 12.7535 31.8934 12.8095C31.9215 12.8656 31.9496 12.9216 31.9777 12.9683C32.0152 13.0243 32.0527 13.071 32.0902 13.1083C32.1277 13.1457 32.184 13.1924 32.2309 13.2204C32.2777 13.2578 32.334 13.2858 32.3902 13.3045C32.4465 13.3325 32.5027 13.3418 32.5684 13.3605C32.634 13.3792 32.6902 13.3792 32.7559 13.3792C32.8121 13.3792 32.8777 13.3698 32.9433 13.3605C32.9996 13.3511 33.0652 13.3325 33.1215 13.3045C33.1777 13.2764 33.234 13.2484 33.2808 13.2204C33.3277 13.1831 33.384 13.1457 33.4215 13.1083C33.459 13.071 33.5058 13.015 33.534 12.9683C33.5715 12.9216 33.5996 12.8656 33.6183 12.8095C33.6465 12.7535 33.6652 12.6975 33.6746 12.6321C33.684 12.5761 33.6933 12.5107 33.6933 12.4547C33.6933 12.3986 33.6746 12.3426 33.6652 12.2772Z" fill="#fbc135"/>
<path d="M47.0625 3.16636H41.4844C40.9688 3.16636 40.5469 3.58637 40.5469 4.09971V4.90238H37.9313C37.4157 4.90238 36.9938 5.32238 36.9938 5.83572V6.10639C35.4657 5.97572 34.9688 5.68639 33.5719 4.88371C32.4938 4.26771 30.8719 3.33436 27.9376 2.01835C27.9282 2.00902 27.9095 2.00902 27.9001 1.99969C26.9438 1.62635 24.4501 0.889008 21.7783 2.09302L18.0095 3.43703L14.8314 0.273003C14.4658 -0.0910008 13.8658 -0.0910008 13.5002 0.273003L3.06587 10.6704C2.72838 11.0064 2.66275 11.5851 3.06587 11.9864L20.9064 29.7479C21.1876 30.028 21.8626 30.1213 22.2283 29.7479L31.7626 20.2559C32.0063 20.2745 32.2688 20.2932 32.5313 20.2932C34.9782 20.2932 37.1438 18.6225 38.3906 16.7932H47.0625C47.5781 16.7932 48 16.3732 48 15.8598V4.09971C48 3.57703 47.5781 3.16636 47.0625 3.16636ZM14.1658 2.25169L16.3033 4.37971C15.6658 4.77171 14.9345 4.97705 14.1658 4.97705C13.3971 4.97705 12.6658 4.77171 12.0283 4.37971L14.1658 2.25169ZM7.19085 13.4518L5.05336 11.3238L7.19085 9.19575C7.58459 9.83043 7.79084 10.5584 7.79084 11.3238C7.79084 12.0891 7.58459 12.8265 7.19085 13.4518ZM21.5626 27.7693L19.4251 25.6412C20.7283 24.8386 22.397 24.8386 23.7001 25.6412L21.5626 27.7693ZM25.0501 24.2972C22.9782 22.8039 20.147 22.8039 18.0752 24.2972L8.54084 14.8051C9.27208 13.8065 9.66583 12.6025 9.66583 11.3331C9.66583 10.0638 9.27208 8.85975 8.54084 7.86107L10.6783 5.73305C11.6814 6.46106 12.8908 6.85307 14.1658 6.85307C15.4408 6.85307 16.6502 6.46106 17.6533 5.73305L19.6783 7.74907C19.2376 7.81441 18.8158 7.95441 18.4126 8.17841C17.7377 8.55175 17.2127 9.11175 16.8845 9.78376C15.8252 9.97976 14.8502 10.4931 14.0814 11.2491C12.0002 13.3211 12.0002 16.6998 14.0814 18.7718C15.122 19.8079 16.4908 20.3305 17.8595 20.3305C19.2283 20.3305 20.597 19.8079 21.6376 18.7718C22.3126 18.0998 22.7907 17.2692 23.0251 16.3638L26.1938 17.4372C25.8376 19.0798 26.2032 20.8065 27.1876 22.1692L25.0501 24.2972ZM19.3501 15.1225C19.3595 15.1225 19.3689 15.1318 19.3783 15.1318L21.2533 15.7665C21.1126 16.4012 20.7939 16.9892 20.3158 17.4558C18.9658 18.7998 16.7627 18.7998 15.4127 17.4558C14.0627 16.1118 14.0627 13.9185 15.4127 12.5745C15.7408 12.2478 16.1252 11.9958 16.547 11.8278C16.7158 13.2558 17.7564 14.5345 19.3501 15.1225ZM28.547 20.8252C28.1813 20.2372 27.9845 19.5652 27.947 18.8838C28.397 19.2105 28.9407 19.5279 29.597 19.7705L28.547 20.8252ZM37.0032 15.4958C36.1125 16.9425 34.3875 18.4265 32.5313 18.4265C32.1844 18.4265 31.8563 18.3985 31.5563 18.3612C29.5313 18.0718 28.4438 16.9238 28.0876 16.4665C28.0688 16.4385 27.9845 16.3358 27.9751 16.3172C27.8626 16.1212 27.6845 15.9625 27.4595 15.8878L20.0064 13.3678C18.8158 12.9198 18.1877 11.9118 18.4783 10.8944C18.6095 10.4278 18.9189 10.0451 19.3408 9.80243C19.7626 9.56909 20.2501 9.51309 20.7189 9.63442L29.1188 12.2851C29.6157 12.4438 30.1407 12.1731 30.3001 11.6784C30.4594 11.1838 30.1876 10.6611 29.6907 10.5024L22.9876 8.40241L22.9314 8.34641L19.472 4.90238L22.4439 3.83837C22.4532 3.83837 22.4626 3.82904 22.472 3.82904H22.4814C22.4907 3.8197 22.5095 3.8197 22.5189 3.81037C24.5251 2.88636 26.4376 3.43703 27.1876 3.7357C30.0188 5.00505 31.5282 5.87305 32.6344 6.50773C34.1719 7.38507 34.9032 7.81441 36.9938 7.98241V15.4958H37.0032ZM40.5469 14.9265H38.8688V6.76906H40.5469V14.9265ZM46.125 14.9265H42.4219V5.03305H46.125V14.9265Z" fill="#fbc135"/>
</svg>
