<svg width="45" height="45" viewBox="0 0 45 45" fill="none" xmlns="http://www.w3.org/2000/svg">
<path d="M16.7769 36.4803V38.8133C16.7769 40.0279 15.7895 41.0153 14.5749 41.0153C13.3604 41.0153 12.373 40.0279 12.373 38.8133V31.8231C12.373 31.2377 11.8924 30.7571 11.307 30.7571H6.65848C6.07305 30.7571 5.59247 31.2377 5.59247 31.8231V33.6842C5.59247 34.6367 4.8148 35.4143 3.86238 35.4143C2.90996 35.4143 2.1323 34.6367 2.1323 33.6842V4.9456C2.09735 3.53007 3.13715 2.32426 4.53519 2.13202C4.62257 2.12329 4.70121 2.12329 4.79733 2.12329H4.84102C5.48761 2.13202 6.11674 2.37668 6.58858 2.81357C7.13906 3.32037 7.46236 4.03687 7.46236 4.78832C7.46236 5.37375 7.94294 5.85433 8.52837 5.85433H31.701V7.71548H33.8156V5.85433H36.4806C37.066 5.85433 37.5466 5.37375 37.5466 4.78832C37.5379 2.1495 35.3884 0 32.7496 0H4.78859H4.77985C4.70995 0.00873781 4.64005 0.00873781 4.57015 0.00873781C4.4915 0.00873781 4.41286 0.00873781 4.32549 0.0174756C1.83521 0.323299 -0.0259399 2.44659 0.000273479 4.95434V33.6842C0.000273479 35.8163 1.73036 37.5463 3.86238 37.5463C5.99441 37.5463 7.72449 35.8163 7.72449 33.6842V32.8804H10.2585V38.8046C10.2585 41.19 12.1982 43.1298 14.5837 43.1298C16.9691 43.1298 18.9089 41.19 18.9089 38.8046V37.5376H21.705V35.4143H17.8429C17.2574 35.4143 16.7769 35.8949 16.7769 36.4803ZM8.77303 2.12329H32.7496C33.8156 2.12329 34.7767 2.76115 35.1962 3.7223H9.46332C9.33225 3.16309 9.09633 2.6126 8.77303 2.12329Z" fill="#fbc135"/>
<path d="M42.0729 13.9807H41.269V13.1768C41.269 12.5914 40.7884 12.1108 40.203 12.1108H39.4079C39.338 10.5555 38.0535 9.3147 36.4807 9.3147H17.843C16.2701 9.3147 14.9857 10.5555 14.9158 12.1108H14.1119C13.5265 12.1108 13.0459 12.5914 13.0459 13.1768V16.9079C13.0459 17.4933 13.5265 17.9739 14.1119 17.9739H14.9158C14.9857 19.5292 16.2701 20.77 17.843 20.77H36.4807C38.0535 20.77 39.338 19.5292 39.4079 17.9739H40.2117C40.7972 17.9739 41.2777 17.4933 41.2777 16.9079V16.104H42.0816C42.5273 16.104 42.8855 16.4622 42.8855 16.9079V21.5651C42.8855 22.0107 42.5273 22.369 42.0816 22.369H30.8972C28.2584 22.369 26.1089 24.5185 26.1089 27.1573V29.8223H24.3788C23.7934 29.8223 23.3128 30.3029 23.3128 30.8883V41.1378C23.3128 43.2698 25.0429 44.9999 27.1749 44.9999C29.307 44.9999 31.037 43.2698 31.037 41.1378V30.8883C31.037 30.3029 30.5565 29.8223 29.971 29.8223H28.2235V27.1573C28.2235 25.6893 29.4205 24.4923 30.8885 24.4923H42.0729C43.6894 24.4923 45.0001 23.1816 45.0001 21.5651V16.9079C45.0001 15.2914 43.6894 13.9807 42.0729 13.9807ZM36.4807 18.6379H17.843C17.3973 18.6379 17.0391 18.2797 17.0391 17.8341V12.2419C17.0391 11.7962 17.3973 11.438 17.843 11.438H36.4807C36.9263 11.438 37.2846 11.7962 37.2846 12.2419V17.8341C37.2846 18.2797 36.9263 18.6379 36.4807 18.6379ZM28.8963 39.1456H25.4274V31.9544H28.8963V39.1456ZM27.1575 42.8766C26.2487 42.8766 25.4973 42.1688 25.4274 41.2776H28.8788C28.8176 42.1688 28.0749 42.8766 27.1575 42.8766Z" fill="#fbc135"/>
<path d="M18.9006 22.3689H16.7773V29.1582H18.9006V22.3689Z" fill="#fbc135"/>
<path d="M18.9006 30.7573H16.7773V32.8806H18.9006V30.7573Z" fill="#fbc135"/>
<path d="M8.65112 11.1846H6.52783V23.566H8.65112V11.1846Z" fill="#fbc135"/>
<path d="M8.65112 25.165H6.52783V27.2883H8.65112V25.165Z" fill="#fbc135"/>
<path d="M35.6765 14.9155H33.5532V17.0388H35.6765V14.9155Z" fill="#fbc135"/>
<path d="M31.946 14.9155H29.8228V17.0388H31.946V14.9155Z" fill="#fbc135"/>
</svg>
