<svg width="38" height="48" viewBox="0 0 38 48" fill="none" xmlns="http://www.w3.org/2000/svg">
<path d="M36.8709 37.4995C36.8403 37.2971 36.1986 32.4079 33.693 30.6162L33.6828 30.6061C32.8781 30.0696 32.0123 29.6242 31.116 29.28C31.0447 29.2294 30.9632 29.1889 30.8919 29.1687L30.3724 28.9865C29.6085 28.6929 28.7733 28.4095 27.9584 28.1564L27.4797 27.9945C27.4186 27.9742 27.3473 27.954 27.2861 27.9438C26.0944 27.5693 25.0249 27.2859 24.4647 27.134V26.2129C26.3491 24.8059 27.4695 22.5789 27.4695 20.2305V19.6231C27.5713 19.6333 27.663 19.6434 27.7649 19.6434C29.0177 19.6434 30.0261 18.6311 30.0261 17.3962V15.7057C30.0261 15.2401 29.8835 14.7947 29.6187 14.4303C29.7816 14.1064 29.8529 13.7521 29.8428 13.3877V12.6791C29.8733 12.0718 29.6798 11.4745 29.2927 10.9886L29.2724 10.9684C29.1094 10.8064 28.926 10.6748 28.7121 10.5837C28.5186 8.76169 27.5815 3.79154 23.1915 1.80753L23.1406 1.75691H23.0998C21.9285 1.27103 20.7062 1.01797 19.433 0.987602H19.0765C17.8746 0.967357 16.6828 1.14956 15.5318 1.53422H15.5013L15.4402 1.55446C10.5307 3.34615 9.5732 8.61998 9.37967 10.5433C9.16577 10.6344 8.98243 10.7659 8.81946 10.9279L8.80927 10.9482C8.40184 11.4239 8.19813 12.0313 8.2185 12.6487V13.3776C8.20832 13.742 8.2898 14.0963 8.44259 14.4303C8.17776 14.8048 8.03516 15.2502 8.03516 15.7159V17.3456C8.03516 18.4186 8.76853 19.3802 9.82784 19.6029C10.0825 19.6636 10.3473 19.6636 10.602 19.6333V20.2406C10.602 22.5587 11.702 24.7654 13.5558 26.1724V27.134C11.4168 27.7009 9.29819 28.3791 7.26104 29.1586H7.23049L7.16937 29.1788C6.20173 29.5432 5.26465 30.019 4.37849 30.5959L4.3683 30.6061C2.01541 32.3067 1.31259 36.629 1.19036 37.4894L0.0291921 46.2555C-0.0115507 46.5794 0.212535 46.8628 0.538478 46.9134L1.33296 47.0147C1.64872 47.0552 1.94411 46.8325 1.98485 46.5187L3.1562 37.7323C3.3701 36.0925 4.19515 33.1468 5.5091 32.1649C5.84523 31.9422 6.19155 31.7499 6.54804 31.5778V36.1836C5.84523 36.5075 4.45998 37.4286 4.45998 39.6961V45.9214C4.45998 46.4579 4.89796 46.8932 5.4378 46.8932H32.6438C33.1837 46.8932 33.6217 46.4579 33.6217 45.9214V39.7062C33.6217 37.4489 32.2364 36.5176 31.5336 36.2038V31.6082C31.8697 31.7803 32.2058 31.9827 32.5216 32.2054C34.0189 33.2885 34.7625 36.6695 34.9051 37.7728L36.0255 46.1441C36.0968 46.6806 36.5959 47.0551 37.1357 46.9843C37.6756 46.9134 38.0626 46.4174 37.9913 45.8809L36.8709 37.4995ZM27.4899 15.6652C27.4797 15.5033 27.6019 15.3514 27.7649 15.3413C27.8464 15.3312 27.9177 15.3616 27.9788 15.4122C28.0399 15.4628 28.0806 15.5337 28.0806 15.6146V15.6349C28.0806 15.645 28.0806 15.645 28.0806 15.6551V17.3759C28.0704 17.4468 28.0399 17.5177 27.9788 17.5683C27.9177 17.6189 27.8362 17.6493 27.7649 17.6391C27.6223 17.629 27.5102 17.5177 27.4899 17.3759V15.6956V15.6652ZM10.164 13.4383C10.164 13.4282 10.164 13.418 10.164 13.4079V12.6184V12.6082C10.164 12.5374 10.1742 12.4564 10.1945 12.3957H10.2862C10.826 12.3957 11.2742 11.9604 11.2742 11.4138C11.2742 11.2012 11.315 6.31204 14.829 4.05472V6.43351C14.829 6.57523 14.8596 6.71694 14.9309 6.85866C15.0531 7.1016 16.1939 9.2172 19.3006 9.2172C22.4174 9.2172 23.548 7.1016 23.6702 6.84854C23.7313 6.70682 23.7619 6.57523 23.7619 6.43351V4.41913C26.7667 6.81817 26.8074 11.3632 26.8074 11.4037C26.8074 11.9402 27.2454 12.3855 27.7852 12.3855H27.8769C27.8973 12.4564 27.9075 12.5374 27.9075 12.6082V13.3674V13.4079C27.9075 13.418 27.9075 13.4282 27.9075 13.4383C27.3167 13.3978 26.7361 13.6003 26.2981 13.9849H11.7835C11.4066 13.661 10.9381 13.4687 10.439 13.4484L10.4288 13.4383H10.2862C10.2455 13.4383 10.2047 13.4383 10.164 13.4383ZM9.99081 15.6551C9.98063 15.4932 10.1029 15.3514 10.2658 15.3312C10.3473 15.3211 10.4186 15.3514 10.4797 15.4021C10.5408 15.4527 10.5816 15.5235 10.5816 15.6045C10.5816 15.6146 10.5816 15.6349 10.5816 15.645V17.3557C10.5714 17.4266 10.5408 17.4974 10.4797 17.548C10.4186 17.5986 10.3473 17.6189 10.2658 17.6189C10.1232 17.6088 10.0112 17.4974 9.99081 17.3557V15.6855V15.6551ZM20.2784 7.13197V3.0121C20.7877 3.07284 21.297 3.19431 21.7961 3.35627V6.13996C21.4192 6.63596 20.8793 6.98013 20.2784 7.13197ZM16.7949 6.15008V3.20443C17.294 3.08296 17.8033 3.00198 18.3125 2.96149V7.15221C17.7116 7.00037 17.1717 6.65621 16.7949 6.15008ZM8.51389 36.9124V30.768C8.95187 30.6061 9.42041 30.434 9.9297 30.272V37.1452C9.9297 37.6817 10.3677 38.1271 10.9177 38.1271H27.2047C27.7445 38.1271 28.1927 37.6918 28.1927 37.1452V30.2923L29.5881 30.7782V36.9225C29.5881 37.4084 29.9548 37.8234 30.4437 37.8943C30.5761 37.9145 31.6864 38.1068 31.6864 39.7163V44.9598H6.42582V39.7163C6.42582 38.198 7.45457 37.9348 7.67866 37.8943C8.1472 37.8032 8.51389 37.3882 8.51389 36.9124ZM12.5474 15.9385H25.524V20.2305C25.524 23.2875 23.0183 25.7776 19.9321 25.7776C19.9321 25.7776 19.9321 25.7776 19.9219 25.7776H18.119C15.0429 25.7776 12.5372 23.2875 12.5372 20.2305V15.9385H12.5474ZM19.0459 35.141L23.8841 28.9966C24.424 29.1383 25.2388 29.361 26.1963 29.6444V36.1532H11.8752L11.8854 29.6242C12.8632 29.3306 13.6882 29.1079 14.1466 28.9865L19.0459 35.141ZM15.5013 27.5389V27.2454C16.3365 27.5592 17.2329 27.7212 18.1292 27.7212H19.9321C20.808 27.7212 21.684 27.5592 22.5091 27.2656V27.5389L19.0255 31.9726L15.5013 27.5389Z" fill="#fbc135"/>
<path d="M11.2538 38.5625H7.15918V40.3846H11.2538V38.5625Z" fill="#fbc135"/>
<path d="M30.912 38.5625H26.8174V40.3846H30.912V38.5625Z" fill="#fbc135"/>
</svg>
