<svg width="24" height="20" viewBox="0 0 24 20" fill="none" xmlns="http://www.w3.org/2000/svg">
<path d="M14.641 19.9999C13.4356 19.9999 12.4458 19.0444 12.4458 17.8595V12.6325C12.4458 11.4476 13.4258 10.4921 14.641 10.4921H21.8047C23.0101 10.4921 23.9999 11.4476 23.9999 12.6325V17.8595C23.9999 19.0444 23.0199 19.9999 21.8047 19.9999H14.641Z" fill="url(#paint0_linear)"/>
<path d="M14.6411 19.7515C13.5729 19.7515 12.7007 18.901 12.7007 17.8594V12.6325C12.7007 11.5909 13.5729 10.7405 14.6411 10.7405H21.8048C22.873 10.7405 23.7452 11.5909 23.7452 12.6325V17.8594C23.7452 18.901 22.873 19.7515 21.8048 19.7515H14.6411Z" fill="#616161"/>
<path d="M23.6569 17.8595C23.6569 18.8533 22.8239 19.6655 21.8047 19.6655H14.641C13.6218 19.6655 12.7888 18.8533 12.7888 17.8595V12.6326C12.7888 11.6388 13.6218 10.8265 14.641 10.8265H21.8047C22.8239 10.8265 23.6569 11.6388 23.6569 12.6326V17.8595Z" fill="url(#paint1_linear)"/>
<path opacity="0.8" d="M14.641 19.1877C13.808 19.1877 13.1318 18.5283 13.1318 17.7161V12.4891C13.1318 11.6769 13.808 11.0176 14.641 11.0176H21.8048C22.6378 11.0176 23.3139 11.6769 23.3139 12.4891V17.7161C23.3139 18.5283 22.6378 19.1877 21.8048 19.1877H14.641Z" fill="url(#paint2_linear)"/>
<path d="M14.641 19.3311C13.808 19.3311 13.1318 18.6718 13.1318 17.8595V12.6326C13.1318 11.8204 13.808 11.161 14.641 11.161H21.8048C22.6378 11.161 23.3139 11.8204 23.3139 12.6326V17.8595C23.3139 18.6718 22.6378 19.3311 21.8048 19.3311H14.641Z" fill="url(#paint3_linear)"/>
<path d="M2.19518 9.50788C0.979992 9.50788 0 8.55232 0 7.36742V2.14047C0 0.955566 0.979992 0 2.19518 0H9.35892C10.5741 0 11.5541 0.955566 11.5541 2.14047V7.36742C11.5541 8.55232 10.5741 9.50788 9.35892 9.50788H2.19518Z" fill="url(#paint4_linear)"/>
<path d="M2.19527 9.2594C1.12708 9.2594 0.254883 8.40895 0.254883 7.36738V2.14043C0.254883 1.09887 1.12708 0.248413 2.19527 0.248413H9.359C10.4272 0.248413 11.2994 1.09887 11.2994 2.14043V7.36738C11.2994 8.40895 10.4272 9.2594 9.359 9.2594H2.19527Z" fill="#4D4D4D"/>
<path d="M11.2111 7.36744C11.2111 8.36123 10.3781 9.17346 9.35894 9.17346H2.1952C1.17601 9.17346 0.343018 8.37078 0.343018 7.36744V2.14049C0.343018 1.1467 1.17601 0.334473 2.1952 0.334473H9.35894C10.3781 0.334473 11.2111 1.1467 11.2111 2.14049V7.36744Z" fill="url(#paint5_linear)"/>
<path opacity="0.8" d="M2.20499 8.68605C1.372 8.68605 0.695801 8.02671 0.695801 7.21448V1.99708C0.695801 1.18485 1.372 0.525513 2.20499 0.525513H9.34913C10.1821 0.525513 10.8583 1.18485 10.8583 1.99708V7.21448C10.8583 8.02671 10.1821 8.68605 9.34913 8.68605H2.20499Z" fill="url(#paint6_linear)"/>
<path d="M2.19522 8.83904C1.36223 8.83904 0.686035 8.17969 0.686035 7.36746V2.14052C0.686035 1.32829 1.36223 0.668945 2.19522 0.668945H9.35896C10.192 0.668945 10.8682 1.32829 10.8682 2.14052V7.36746C10.8682 8.17969 10.192 8.83904 9.35896 8.83904H2.19522Z" fill="url(#paint7_linear)"/>
<path d="M14.6312 9.50788C13.416 9.50788 12.436 8.55232 12.436 7.36742V2.14047C12.436 0.955566 13.4258 0 14.6312 0H21.795C23.0101 0 23.9901 0.955566 23.9901 2.14047V7.36742C23.9901 8.55232 23.0101 9.50788 21.795 9.50788H14.6312Z" fill="url(#paint8_linear)"/>
<path d="M14.6313 9.2594C13.5631 9.2594 12.6909 8.40895 12.6909 7.36738V2.14043C12.6909 1.09887 13.5631 0.248413 14.6313 0.248413H21.795C22.8632 0.248413 23.7354 1.09887 23.7354 2.14043V7.36738C23.7354 8.40895 22.8632 9.2594 21.795 9.2594H14.6313Z" fill="#4D4D4D"/>
<path d="M23.6472 7.36744C23.6472 8.36123 22.8142 9.17346 21.795 9.17346H14.6312C13.612 9.17346 12.7791 8.36123 12.7791 7.36744V2.14049C12.7791 1.1467 13.612 0.334473 14.6312 0.334473H21.795C22.8142 0.334473 23.6472 1.1467 23.6472 2.14049V7.36744Z" fill="url(#paint9_linear)"/>
<path opacity="0.8" d="M14.641 8.68605C13.808 8.68605 13.1318 8.02671 13.1318 7.21448V1.99708C13.1318 1.18485 13.808 0.525513 14.641 0.525513H21.7852C22.6182 0.525513 23.2944 1.18485 23.2944 1.99708V7.21448C23.2944 8.02671 22.6182 8.68605 21.7852 8.68605H14.641Z" fill="url(#paint10_linear)"/>
<path d="M14.6313 8.83904C13.7983 8.83904 13.1221 8.17969 13.1221 7.36746V2.14052C13.1221 1.32829 13.7983 0.668945 14.6313 0.668945H21.795C22.628 0.668945 23.3042 1.32829 23.3042 2.14052V7.36746C23.3042 8.17969 22.628 8.83904 21.795 8.83904H14.6313Z" fill="url(#paint11_linear)"/>
<path d="M2.19518 19.9999C0.979992 19.9999 0 19.0348 0 17.8595V12.6325C0 11.4572 0.979992 10.4921 2.19518 10.4921H9.35892C10.5741 10.4921 11.5541 11.4476 11.5541 12.6325V17.8595C11.5541 19.0444 10.5741 19.9999 9.35892 19.9999H2.19518Z" fill="url(#paint12_linear)"/>
<path d="M2.19527 19.7515C1.12708 19.7515 0.254883 18.901 0.254883 17.8594V12.6325C0.254883 11.5909 1.12708 10.7405 2.19527 10.7405H9.359C10.4272 10.7405 11.2994 11.5909 11.2994 12.6325V17.8594C11.2994 18.901 10.4272 19.7515 9.359 19.7515H2.19527Z" fill="#4D4D4D"/>
<path d="M11.2111 17.8595C11.2111 18.8533 10.3781 19.6655 9.35894 19.6655H2.1952C1.17601 19.6655 0.343018 18.8533 0.343018 17.8595V12.6326C0.343018 11.6388 1.17601 10.8265 2.1952 10.8265H9.35894C10.3781 10.8265 11.2111 11.6388 11.2111 12.6326V17.8595Z" fill="url(#paint13_linear)"/>
<path opacity="0.8" d="M2.20499 19.1781C1.372 19.1781 0.695801 18.5188 0.695801 17.7065V12.4891C0.695801 11.6769 1.372 11.0176 2.20499 11.0176H9.34913C10.1821 11.0176 10.8583 11.6769 10.8583 12.4891V17.7065C10.8583 18.5188 10.1821 19.1781 9.34913 19.1781H2.20499Z" fill="url(#paint14_linear)"/>
<path d="M2.19522 19.3311C1.36223 19.3311 0.686035 18.6718 0.686035 17.8595V12.6326C0.686035 11.8204 1.36223 11.161 2.19522 11.161H9.35896C10.192 11.161 10.8682 11.8204 10.8682 12.6326V17.8595C10.8682 18.6718 10.192 19.3311 9.35896 19.3311H2.19522Z" fill="url(#paint15_linear)"/>
<path d="M16.2581 5.24602V4.26178H20.178V5.24602H16.2581ZM17.679 3.79356V2.74243H18.757V3.79356H17.679ZM17.679 6.76537V5.71424H18.757V6.76537H17.679Z" fill="url(#paint16_linear)"/>
<path d="M3.91019 16.3688L5.06658 15.2413L3.90039 14.1137L4.61578 13.4161L5.78198 14.5533L6.93837 13.4257L7.63416 14.1041L6.47777 15.2317L7.64396 16.3688L6.92857 17.0664L5.76238 15.9293L4.60599 17.0568L3.91019 16.3688Z" fill="url(#paint17_linear)"/>
<path d="M16.2581 14.8972V13.9321H20.178V14.8972H16.2581ZM16.2581 16.5504V15.5853H20.178V16.5504H16.2581Z" fill="url(#paint18_linear)"/>
<path d="M5.28224 6.66983V5.24604H3.81226V4.2618H5.28224V2.83801H6.26224V4.2618H7.73223V5.24604H6.26224V6.66983H5.28224Z" fill="url(#paint19_linear)"/>
<defs>
<linearGradient id="paint0_linear" x1="18.2202" y1="19.9969" x2="18.2202" y2="16.9884" gradientUnits="userSpaceOnUse">
<stop stop-color="white"/>
<stop offset="0.1942" stop-color="#F8F8F8"/>
<stop offset="0.4701" stop-color="#E6E6E6"/>
<stop offset="0.7932" stop-color="#C7C7C7"/>
<stop offset="1" stop-color="#B0B0B0"/>
</linearGradient>
<linearGradient id="paint1_linear" x1="18.2201" y1="19.6639" x2="18.2201" y2="10.7917" gradientUnits="userSpaceOnUse">
<stop stop-color="#BD5338"/>
<stop offset="0.328" stop-color="#A64127"/>
<stop offset="0.6882" stop-color="#A64127"/>
<stop offset="1" stop-color="#E0765A"/>
</linearGradient>
<linearGradient id="paint2_linear" x1="18.2201" y1="3.46757" x2="18.2201" y2="26.783" gradientUnits="userSpaceOnUse">
<stop stop-color="white"/>
<stop offset="1" stop-color="white"/>
</linearGradient>
<linearGradient id="paint3_linear" x1="11.5313" y1="8.02718" x2="24.8149" y2="23.0977" gradientUnits="userSpaceOnUse">
<stop stop-color="#EB673F"/>
<stop offset="1" stop-color="#FFA03F"/>
</linearGradient>
<linearGradient id="paint4_linear" x1="5.77515" y1="9.50937" x2="5.77515" y2="6.50097" gradientUnits="userSpaceOnUse">
<stop stop-color="white"/>
<stop offset="0.1942" stop-color="#F8F8F8"/>
<stop offset="0.4701" stop-color="#E6E6E6"/>
<stop offset="0.7932" stop-color="#C7C7C7"/>
<stop offset="1" stop-color="#B0B0B0"/>
</linearGradient>
<linearGradient id="paint5_linear" x1="5.77517" y1="9.17644" x2="5.77517" y2="0.304611" gradientUnits="userSpaceOnUse">
<stop stop-color="#3D3D3D"/>
<stop offset="0.1393" stop-color="#393939"/>
<stop offset="0.4946" stop-color="#363636"/>
<stop offset="0.5978" stop-color="#3B3B3B"/>
<stop offset="0.7271" stop-color="#4B4B4B"/>
<stop offset="0.8697" stop-color="#646464"/>
<stop offset="1" stop-color="#828282"/>
</linearGradient>
<linearGradient id="paint6_linear" x1="5.77516" y1="-7.00851" x2="5.77516" y2="16.266" gradientUnits="userSpaceOnUse">
<stop stop-color="white"/>
<stop offset="1" stop-color="white"/>
</linearGradient>
<linearGradient id="paint7_linear" x1="0.683164" y1="4.75493" x2="10.8672" y2="4.75493" gradientUnits="userSpaceOnUse">
<stop stop-color="#525252"/>
<stop offset="1" stop-color="#7A7A7A"/>
</linearGradient>
<linearGradient id="paint8_linear" x1="18.2156" y1="9.50937" x2="18.2156" y2="6.50097" gradientUnits="userSpaceOnUse">
<stop stop-color="white"/>
<stop offset="0.1942" stop-color="#F8F8F8"/>
<stop offset="0.4701" stop-color="#E6E6E6"/>
<stop offset="0.7932" stop-color="#C7C7C7"/>
<stop offset="1" stop-color="#B0B0B0"/>
</linearGradient>
<linearGradient id="paint9_linear" x1="18.2157" y1="9.17644" x2="18.2157" y2="0.30442" gradientUnits="userSpaceOnUse">
<stop stop-color="#3D3D3D"/>
<stop offset="0.1393" stop-color="#393939"/>
<stop offset="0.4946" stop-color="#363636"/>
<stop offset="0.5978" stop-color="#3B3B3B"/>
<stop offset="0.7271" stop-color="#4B4B4B"/>
<stop offset="0.8697" stop-color="#646464"/>
<stop offset="1" stop-color="#828282"/>
</linearGradient>
<linearGradient id="paint10_linear" x1="18.2156" y1="-7.00888" x2="18.2156" y2="16.2661" gradientUnits="userSpaceOnUse">
<stop stop-color="white"/>
<stop offset="1" stop-color="white"/>
</linearGradient>
<linearGradient id="paint11_linear" x1="21.9313" y1="12.1879" x2="15.5934" y2="-1.14807" gradientUnits="userSpaceOnUse">
<stop stop-color="#7A7A7A"/>
<stop offset="1" stop-color="#525252"/>
</linearGradient>
<linearGradient id="paint12_linear" x1="5.77515" y1="19.9967" x2="5.77515" y2="16.9883" gradientUnits="userSpaceOnUse">
<stop stop-color="white"/>
<stop offset="0.1942" stop-color="#F8F8F8"/>
<stop offset="0.4701" stop-color="#E6E6E6"/>
<stop offset="0.7932" stop-color="#C7C7C7"/>
<stop offset="1" stop-color="#B0B0B0"/>
</linearGradient>
<linearGradient id="paint13_linear" x1="5.77517" y1="19.6635" x2="5.77517" y2="10.7917" gradientUnits="userSpaceOnUse">
<stop stop-color="#3D3D3D"/>
<stop offset="0.1393" stop-color="#393939"/>
<stop offset="0.4946" stop-color="#363636"/>
<stop offset="0.5978" stop-color="#3B3B3B"/>
<stop offset="0.7271" stop-color="#4B4B4B"/>
<stop offset="0.8697" stop-color="#646464"/>
<stop offset="1" stop-color="#828282"/>
</linearGradient>
<linearGradient id="paint14_linear" x1="5.77516" y1="3.47859" x2="5.77516" y2="26.7531" gradientUnits="userSpaceOnUse">
<stop stop-color="white"/>
<stop offset="1" stop-color="white"/>
</linearGradient>
<linearGradient id="paint15_linear" x1="0.683164" y1="15.242" x2="10.8672" y2="15.242" gradientUnits="userSpaceOnUse">
<stop stop-color="#525252"/>
<stop offset="1" stop-color="#7A7A7A"/>
</linearGradient>
<linearGradient id="paint16_linear" x1="19.7596" y1="7.43915" x2="16.3145" y2="1.13911" gradientUnits="userSpaceOnUse">
<stop stop-color="#F5F5F5"/>
<stop offset="1" stop-color="#C2C2C2"/>
</linearGradient>
<linearGradient id="paint17_linear" x1="6.91323" y1="17.3949" x2="3.67202" y2="10.9462" gradientUnits="userSpaceOnUse">
<stop stop-color="#F5F5F5"/>
<stop offset="1" stop-color="#C2C2C2"/>
</linearGradient>
<linearGradient id="paint18_linear" x1="19.3161" y1="17.0912" x2="16.4257" y2="11.9621" gradientUnits="userSpaceOnUse">
<stop stop-color="#F5F5F5"/>
<stop offset="1" stop-color="#C2C2C2"/>
</linearGradient>
<linearGradient id="paint19_linear" x1="7.24594" y1="6.964" x2="3.63252" y2="1.25512" gradientUnits="userSpaceOnUse">
<stop stop-color="#F5F5F5"/>
<stop offset="1" stop-color="#C2C2C2"/>
</linearGradient>
</defs>
</svg>
