<svg width="36" height="21" viewBox="0 0 36 21" fill="none" xmlns="http://www.w3.org/2000/svg">
<path d="M17.5749 21C10.8592 21 4.76897 17.3258 0.275029 11.3578C-0.0916764 10.8689 -0.0916764 10.1858 0.275029 9.69684C4.76897 3.7217 10.8592 0.047451 17.5749 0.047451C24.2907 0.047451 30.3808 3.7217 34.8748 9.68965C35.2415 10.1786 35.2415 10.8617 34.8748 11.3506C30.3808 17.3258 24.2907 21 17.5749 21ZM18.0567 3.14647C13.5987 2.86605 9.91723 6.5403 10.1977 11.0055C10.4277 14.6869 13.4117 17.6709 17.0932 17.901C21.5511 18.1814 25.2326 14.5072 24.9522 10.042C24.7149 6.36773 21.7309 3.38375 18.0567 3.14647ZM17.8338 6.55468C15.4322 6.40368 13.4477 8.38101 13.6059 10.7826C13.7281 12.7671 15.3387 14.3705 17.3232 14.5C19.7248 14.651 21.7093 12.6736 21.5511 10.2721C21.4217 8.28035 19.8111 6.67691 17.8338 6.55468Z" fill="white"/>
</svg>
