<svg width="70" height="70" viewBox="0 0 70 70" fill="none" xmlns="http://www.w3.org/2000/svg">
<rect opacity="0.5" width="70" height="70" rx="15" fill="url(#paint0_linear)"/>
<g filter="url(#filter0_d)">
<rect x="4.375" y="4.26831" width="61.25" height="59.7561" rx="12" fill="url(#paint1_linear)"/>
</g>
<path d="M21.2224 20.1359C21.2224 20.3401 21.1727 20.5338 21.0732 20.7171C20.979 20.9003 20.8454 21.0443 20.6727 21.149C21.1963 21.3689 21.4581 21.7773 21.4581 22.3742C21.4581 22.8664 21.3036 23.2617 20.9947 23.5602C20.6857 23.8534 20.259 24 19.7145 24H17.1619V18.5101H19.4946C20.0077 18.5101 20.424 18.6567 20.7433 18.9499C21.0627 19.2379 21.2224 19.6332 21.2224 20.1359ZM19.4082 19.5154H18.3322V20.7642H19.4082C19.6071 20.7642 19.7642 20.7118 19.8794 20.6071C19.9998 20.5024 20.0627 20.3584 20.0679 20.1751C20.0731 19.9762 20.0155 19.8165 19.8951 19.696C19.7747 19.5756 19.6124 19.5154 19.4082 19.5154ZM19.581 21.7224H18.3322V22.979H19.6359C19.8349 22.979 19.992 22.9266 20.1072 22.8219C20.2224 22.712 20.2852 22.5627 20.2957 22.3742C20.3061 22.1334 20.225 21.9527 20.0522 21.8323C19.9475 21.759 19.7904 21.7224 19.581 21.7224ZM23.5776 18.5022V18.6358V20.2223H24.7557C25.4155 20.2223 25.9207 20.4369 26.2715 20.8663C26.6223 21.2956 26.7637 21.7904 26.6956 22.3507C26.638 22.8219 26.4365 23.2146 26.0909 23.5288C25.7506 23.8429 25.3055 24 24.7557 24H22.431V18.5022H23.5776ZM24.7557 21.259H24.6379H23.5776V22.9633C23.6824 22.9633 23.8447 22.9659 24.0646 22.9711C24.2845 22.9711 24.4494 22.9711 24.5594 22.9711C25.1825 22.9711 25.5202 22.7198 25.5725 22.2172C25.5987 21.9606 25.5359 21.7381 25.384 21.5496C25.2322 21.3558 25.0228 21.259 24.7557 21.259ZM28.6748 18.5022V24H27.5046V18.5022H28.6748ZM30.8035 19.8531H29.7668C29.7458 19.3767 29.9055 19.0154 30.2459 18.7693C30.5914 18.518 31.0208 18.3923 31.5339 18.3923C32.0889 18.3923 32.5314 18.5389 32.8612 18.8321C33.1911 19.1253 33.356 19.4971 33.356 19.9474C33.356 20.1673 33.2984 20.3715 33.1832 20.56C33.0733 20.7485 32.9214 20.9003 32.7277 21.0155C33.3456 21.2982 33.6545 21.7616 33.6545 22.4057C33.6545 22.9188 33.466 23.3324 33.089 23.6466C32.7172 23.9555 32.1989 24.11 31.5339 24.11C30.9265 24.11 30.4448 23.9555 30.0888 23.6466C29.7327 23.3324 29.5547 22.8717 29.5547 22.2643H30.615C30.615 22.5313 30.7014 22.7434 30.8742 22.9004C31.0522 23.0575 31.2721 23.1361 31.5339 23.1361C31.8167 23.1361 32.0418 23.0628 32.2093 22.9162C32.3821 22.7643 32.4685 22.5706 32.4685 22.335C32.4685 22.1098 32.3795 21.9239 32.2015 21.7773C32.0287 21.6255 31.8062 21.5496 31.5339 21.5496H31.1255V20.6071H31.5261C31.7355 20.6071 31.9083 20.5469 32.0444 20.4265C32.1858 20.3008 32.2565 20.149 32.2565 19.9709C32.2565 19.772 32.1858 19.6149 32.0444 19.4997C31.903 19.3845 31.7329 19.3269 31.5339 19.3269C31.3349 19.3269 31.1622 19.374 31.0156 19.4683C30.8742 19.5573 30.8035 19.6856 30.8035 19.8531ZM38.679 20.1359C38.679 20.3401 38.6293 20.5338 38.5298 20.7171C38.4356 20.9003 38.302 21.0443 38.1293 21.149C38.6528 21.3689 38.9146 21.7773 38.9146 22.3742C38.9146 22.8664 38.7602 23.2617 38.4513 23.5602C38.1423 23.8534 37.7156 24 37.1711 24H34.6185V18.5101H36.9512C37.4643 18.5101 37.8805 18.6567 38.1999 18.9499C38.5193 19.2379 38.679 19.6332 38.679 20.1359ZM36.8648 19.5154H35.7888V20.7642H36.8648C37.0637 20.7642 37.2208 20.7118 37.336 20.6071C37.4564 20.5024 37.5193 20.3584 37.5245 20.1751C37.5297 19.9762 37.4721 19.8165 37.3517 19.696C37.2313 19.5756 37.069 19.5154 36.8648 19.5154ZM37.0376 21.7224H35.7888V22.979H37.0925C37.2915 22.979 37.4486 22.9266 37.5638 22.8219C37.679 22.712 37.7418 22.5627 37.7523 22.3742C37.7627 22.1334 37.6816 21.9527 37.5088 21.8323C37.4041 21.759 37.247 21.7224 37.0376 21.7224ZM43.07 23.0889H40.7846L40.3604 24H39.1352V23.8429L41.6642 18.4551H42.2061L44.7194 23.8429V24H43.502L43.07 23.0889ZM41.9312 20.2851L41.1694 22.0993H42.6931L41.9312 20.2851ZM45.8852 19.5233H44.4165V18.5022H48.4848V19.5233H47.024V24H45.8852V19.5233ZM50.4068 18.5022V20.2223H51.5849C52.187 20.2223 52.6635 20.4055 53.0143 20.772C53.3651 21.1386 53.5405 21.581 53.5405 22.0993C53.5405 22.6229 53.3651 23.0706 53.0143 23.4424C52.6635 23.8141 52.187 24 51.5849 24H49.2601V18.5022H50.4068ZM51.5849 21.259H50.4068V22.9633C50.4906 22.9633 50.611 22.9659 50.7681 22.9711C50.9304 22.9711 51.077 22.9711 51.2079 22.9711C51.344 22.9711 51.4697 22.9685 51.5849 22.9633C51.8362 22.9633 52.0378 22.8795 52.1896 22.712C52.3415 22.5444 52.4148 22.3402 52.4095 22.0993C52.4043 21.8637 52.3258 21.6648 52.1739 21.5024C52.0273 21.3401 51.831 21.259 51.5849 21.259ZM10.8158 28.8531H9.77913C9.75819 28.3767 9.91788 28.0154 10.2582 27.7693C10.6038 27.518 11.0331 27.3923 11.5463 27.3923C12.1013 27.3923 12.5437 27.5389 12.8736 27.8321C13.2034 28.1253 13.3684 28.4971 13.3684 28.9474C13.3684 29.1673 13.3108 29.3715 13.1956 29.56C13.0856 29.7485 12.9338 29.9003 12.7401 30.0155C13.3579 30.2982 13.6668 30.7616 13.6668 31.4057C13.6668 31.9188 13.4783 32.3324 13.1013 32.6466C12.7296 32.9555 12.2112 33.11 11.5463 33.11C10.9389 33.11 10.4572 32.9555 10.1011 32.6466C9.7451 32.3324 9.56707 31.8717 9.56707 31.2643H10.6274C10.6274 31.5313 10.7137 31.7434 10.8865 31.9004C11.0646 32.0575 11.2845 32.1361 11.5463 32.1361C11.829 32.1361 12.0542 32.0628 12.2217 31.9162C12.3945 31.7643 12.4809 31.5706 12.4809 31.335C12.4809 31.1098 12.3919 30.9239 12.2138 30.7773C12.0411 30.6255 11.8185 30.5496 11.5463 30.5496H11.1379V29.6071H11.5384C11.7478 29.6071 11.9206 29.5469 12.0568 29.4265C12.1981 29.3008 12.2688 29.149 12.2688 28.9709C12.2688 28.772 12.1981 28.6149 12.0568 28.4997C11.9154 28.3845 11.7452 28.3269 11.5463 28.3269C11.3473 28.3269 11.1745 28.374 11.0279 28.4683C10.8865 28.5573 10.8158 28.6856 10.8158 28.8531ZM17.8132 32.0889H15.5277L15.1036 33H13.8784V32.8429L16.4074 27.4551H16.9493L19.4625 32.8429V33H18.2452L17.8132 32.0889ZM16.6744 29.2851L15.9126 31.0993H17.4362L16.6744 29.2851ZM22.6999 30.1019L24.9068 27.4865H25.331V33H24.1529V30.0234L22.7706 31.7512H22.6214L21.2391 30.0234V33H20.061V27.4865H20.4929L22.6999 30.1019ZM29.9727 27.5022V28.5311H27.7893V29.6464H29.8313V30.6752H27.7893V31.9319H30.0355V33H26.6034V27.5022H29.9727ZM32.2838 32.9921H31.1057V27.4944H33.4541C34.0614 27.4944 34.5379 27.6907 34.8835 28.0834C35.2343 28.4761 35.4097 28.9474 35.4097 29.4971C35.4097 30.0364 35.2343 30.4946 34.8835 30.8716C34.5327 31.2486 34.0562 31.4371 33.4541 31.4371H32.2838V32.9921ZM32.2603 30.4318H33.4541C33.7002 30.4318 33.8991 30.3401 34.051 30.1569C34.2081 29.9684 34.2866 29.738 34.2866 29.4657C34.2866 29.1987 34.2107 28.9762 34.0588 28.7981C33.907 28.6149 33.7054 28.5233 33.4541 28.5233H32.2603V30.4318ZM36.2444 33V27.5022H37.4303V31.9319H39.0639V27.5022H40.2342V31.9319H41.8835V27.5022H43.0537V32.0026H43.7213V33.7069H42.6846V33H36.2444ZM48.0988 29.8584L44.9886 33.0157H44.6352V27.5022H45.8133V30.6203L48.8999 27.4787H49.269V33H48.0988V29.8584ZM51.7112 27.5022V29.772C52.2086 29.772 52.5254 29.738 52.6615 29.6699C52.7924 29.5966 52.8945 29.4736 52.9678 29.3008C53.0411 29.1228 53.1223 28.8479 53.2113 28.4761C53.4469 27.6227 54.0726 27.3007 55.0884 27.5101V28.3112C54.8633 28.2903 54.6879 28.3191 54.5622 28.3976C54.4418 28.4761 54.3528 28.6175 54.2952 28.8217C54.1119 29.5181 53.8815 30.005 53.604 30.2825L55.2848 32.8272V33H53.9574L52.5751 30.7381C52.4338 30.7747 52.1458 30.793 51.7112 30.793V33H50.541V27.5022H51.7112ZM59.3148 32.0889H57.0293L56.6052 33H55.38V32.8429L57.909 27.4551H58.4509L60.9641 32.8429V33H59.7468L59.3148 32.0889ZM58.176 29.2851L57.4142 31.0993H58.9378L58.176 29.2851Z" fill="#262F39"/>
<path d="M57.0219 52.6051V42.5328C57.0219 41.1398 55.9965 40 54.7434 40H42.0901H32.6419H18.4621H15.257C14.0038 40 12.9785 41.1398 12.9785 42.5328V52.6051C12.9785 53.3059 13.2367 53.9391 13.6469 54.395C14.057 54.8509 14.6266 55.138 15.257 55.138H20.1482C20.5659 55.138 20.9077 54.758 20.9077 54.2937C20.9077 53.8293 20.5659 53.4494 20.1482 53.4494H15.257C14.8393 53.4494 14.4975 53.0695 14.4975 52.6051V42.5328C14.4975 42.0685 14.8393 41.6886 15.257 41.6886H17.7026V47.5057C17.7026 47.7421 17.7861 47.9531 17.9229 48.1051C18.0596 48.2571 18.2494 48.3499 18.4621 48.3499C18.8798 48.3499 19.2216 47.97 19.2216 47.5057V41.6886H22.4267V44.9475C22.4267 45.1839 22.5102 45.395 22.6469 45.5469C22.7836 45.6989 22.9735 45.7918 23.1862 45.7918C23.6039 45.7918 23.9457 45.4118 23.9457 44.9475V41.6886H27.1508V47.5057C27.1508 47.7421 27.2343 47.9531 27.371 48.1051C27.5077 48.2571 27.6976 48.3499 27.9103 48.3499C28.328 48.3499 28.6698 47.97 28.6698 47.5057V41.6886H31.8748V44.9475C31.8748 45.1839 31.9584 45.395 32.0951 45.5469C32.2318 45.6989 32.4217 45.7918 32.6343 45.7918C33.0521 45.7918 33.3938 45.4118 33.3938 44.9475V41.6886H36.5989V47.5057C36.5989 47.7421 36.6825 47.9531 36.8192 48.1051C36.9559 48.2571 37.1458 48.3499 37.3584 48.3499C37.7761 48.3499 38.1179 47.97 38.1179 47.5057V41.6886H41.323V44.9475C41.323 45.1839 41.4066 45.395 41.5433 45.5469C41.68 45.6989 41.8699 45.7918 42.0825 45.7918C42.5002 45.7918 42.842 45.4118 42.842 44.9475V41.6886H46.0471V47.5057C46.0471 47.7421 46.1306 47.9531 46.2673 48.1051C46.4041 48.2571 46.5939 48.3499 46.8066 48.3499C47.2243 48.3499 47.5661 47.97 47.5661 47.5057V41.6886H50.7712V44.9475C50.7712 45.1839 50.8547 45.395 50.9914 45.5469C51.1281 45.6989 51.318 45.7918 51.5307 45.7918C51.9484 45.7918 52.2902 45.4118 52.2902 44.9475V41.6886H54.7358C55.1535 41.6886 55.4953 42.0685 55.4953 42.5328V52.6051C55.4953 53.0695 55.1535 53.4494 54.7358 53.4494H26.2318C25.814 53.4494 25.4723 53.8293 25.4723 54.2937C25.4723 54.758 25.814 55.138 26.2318 55.138H54.7509C56.0041 55.138 57.0219 54.0066 57.0219 52.6051Z" fill="#262F39"/>
<path d="M23.7255 53.7027C23.5812 53.5423 23.3914 53.4579 23.1863 53.4579C22.9888 53.4579 22.7913 53.5508 22.647 53.7027C22.5027 53.8631 22.4268 54.0742 22.4268 54.3022C22.4268 54.5217 22.5103 54.7412 22.647 54.9016C22.7913 55.062 22.9812 55.1465 23.1863 55.1465C23.3838 55.1465 23.5812 55.0536 23.7255 54.9016C23.8699 54.7412 23.9458 54.5301 23.9458 54.3022C23.9534 54.0827 23.8699 53.8631 23.7255 53.7027Z" fill="#262F39"/>
<defs>
<filter id="filter0_d" x="4.375" y="4.26831" width="61.25" height="61.7561" filterUnits="userSpaceOnUse" color-interpolation-filters="sRGB">
<feFlood flood-opacity="0" result="BackgroundImageFix"/>
<feColorMatrix in="SourceAlpha" type="matrix" values="0 0 0 0 0 0 0 0 0 0 0 0 0 0 0 0 0 0 127 0"/>
<feOffset dy="2"/>
<feColorMatrix type="matrix" values="0 0 0 0 1 0 0 0 0 0.796274 0 0 0 0 0.0583333 0 0 0 1 0"/>
<feBlend mode="normal" in2="BackgroundImageFix" result="effect1_dropShadow"/>
<feBlend mode="normal" in="SourceGraphic" in2="effect1_dropShadow" result="shape"/>
</filter>
<linearGradient id="paint0_linear" x1="35" y1="0" x2="35" y2="70" gradientUnits="userSpaceOnUse">
<stop stop-color="#FAD32D"/>
<stop offset="1" stop-color="#E6A527"/>
</linearGradient>
<linearGradient id="paint1_linear" x1="35" y1="4.26831" x2="35" y2="64.0244" gradientUnits="userSpaceOnUse">
<stop stop-color="#FAD32D"/>
<stop offset="1" stop-color="#E6A527"/>
</linearGradient>
</defs>
</svg>
