<svg width="32" height="32" viewBox="0 0 32 32" fill="none" xmlns="http://www.w3.org/2000/svg">
<path d="M31.5155 4.54086L27.46 0.479047C26.8213 -0.159682 25.7795 -0.159682 25.1408 0.479047L17.4949 8.12519C17.253 8.36704 17.253 8.75151 17.4949 8.99336C17.7367 9.23521 18.1212 9.23521 18.363 8.99336L26.009 1.34722C26.0896 1.26661 26.1888 1.2294 26.3004 1.2294C26.412 1.2294 26.5112 1.27281 26.5919 1.34722L30.6536 5.40904C30.7342 5.48966 30.7714 5.58888 30.7714 5.7005C30.7714 5.81212 30.728 5.91134 30.6536 5.99196L29.7482 6.89734L27.2244 4.37343C26.9825 4.13158 26.5981 4.13158 26.3562 4.37343C26.1144 4.61528 26.1144 4.99976 26.3562 5.24161L28.8801 7.76551L27.9189 8.72671L26.8523 7.6725C26.6105 7.43065 26.226 7.43065 25.9842 7.6725C25.7423 7.91434 25.7423 8.29882 25.9842 8.54067L27.0445 9.60108L26.0834 10.5623L25.023 9.50186C24.7811 9.26002 24.3967 9.26002 24.1548 9.50186C23.913 9.74371 23.913 10.1282 24.1548 10.37L25.2152 11.4305L24.2478 12.3916L21.724 9.86774C21.4822 9.62589 21.0977 9.62589 20.8558 9.86774C20.614 10.1096 20.614 10.4941 20.8558 10.7359L23.3797 13.2598L22.4185 14.221L21.3581 13.1606C21.1163 12.9188 20.7318 12.9188 20.49 13.1606C20.2481 13.4025 20.2481 13.7869 20.49 14.0288L21.5504 15.0892L20.7628 15.8767L16.1182 11.232L16.9243 10.4259C17.1662 10.184 17.1662 9.79953 16.9243 9.55768C16.6825 9.31583 16.298 9.31583 16.0562 9.55768L15.2501 10.3638L6.30187 1.41544C5.64455 0.764304 4.7826 0.404632 3.85863 0.404632C2.93467 0.404632 2.06652 0.764304 1.4154 1.41544C0.764285 2.07277 0.404622 2.93474 0.404622 3.85873C0.404622 4.78271 0.764285 5.65089 1.4154 6.30202L10.3698 15.2566L0.479035 25.1414C-0.159678 25.7801 -0.159678 26.822 0.479035 27.4607L4.54075 31.5225C4.85081 31.8326 5.26008 32 5.70036 32C6.14064 32 6.54991 31.8264 6.85997 31.5225L16.7445 21.6315L17.3646 22.2516C17.6065 22.4935 17.9909 22.4935 18.2328 22.2516C18.4746 22.0098 18.4746 21.6253 18.2328 21.3835L17.2592 20.4099C17.2344 20.3727 17.2096 20.3417 17.1848 20.3168C17.16 20.292 17.1228 20.261 17.0918 20.2424L6.57472 9.72511L7.71572 8.58408L8.44125 9.30963C8.55907 9.42745 8.7141 9.48946 8.87532 9.48946C9.03655 9.48946 9.19158 9.42745 9.3094 9.30963C9.55124 9.06778 9.55124 8.6833 9.3094 8.44145L8.58387 7.71591L9.72487 6.57488L20.2791 17.1294C20.2977 17.1542 20.3101 17.1728 20.3288 17.1852C20.3474 17.2038 20.366 17.2162 20.3846 17.2348L27.5654 24.4159L26.4182 25.5569L19.1754 18.3076C19.1691 18.3014 19.1629 18.2952 19.1629 18.2952L16.236 15.3682C16.2298 15.362 16.2236 15.3558 16.2236 15.3558L11.0581 10.1902C10.8163 9.94835 10.4318 9.94835 10.19 10.1902C9.94811 10.4321 9.94811 10.8165 10.19 11.0584L25.5501 26.4251L24.4091 27.5661L19.8451 22.9896C19.6032 22.7477 19.2188 22.7477 18.9769 22.9896C18.7351 23.2314 18.7351 23.6159 18.9769 23.8578L23.9812 28.8622C24.0432 28.9242 24.1114 28.9676 24.192 28.9986L30.1141 31.2993C30.2195 31.3427 30.3311 31.3613 30.4489 31.3613C30.697 31.3613 30.9264 31.2683 31.1001 31.0946C31.3605 30.8342 31.4411 30.4497 31.3047 30.1148L29.0041 24.1988C28.9731 24.1182 28.9235 24.0438 28.8677 23.988L21.631 16.7511L31.5217 6.86013C32.1604 6.2214 32.1604 5.17959 31.5155 4.54086ZM28.1979 25.5135L29.9033 29.8978L25.5129 28.1924L28.1979 25.5135ZM13.1665 20.4905C12.9246 20.7323 12.9246 21.1168 13.1665 21.3587L14.2269 22.4191L13.2595 23.3803L10.7357 20.8564C10.4938 20.6145 10.1093 20.6145 9.8675 20.8564C9.62566 21.0982 9.62566 21.4827 9.8675 21.7245L12.3913 24.2484L11.4302 25.2096L10.3698 24.1492C10.1279 23.9074 9.74348 23.9074 9.50163 24.1492C9.25979 24.3911 9.25979 24.7755 9.50163 25.0174L10.562 26.0778L9.60085 27.039L8.54046 25.9848C8.29862 25.7429 7.91415 25.7429 7.67231 25.9848C7.43047 26.2266 7.43047 26.6111 7.67231 26.853L8.7327 27.9134L7.77153 28.8746L5.24768 26.3507C5.00584 26.1088 4.62137 26.1088 4.37953 26.3507C4.13768 26.5925 4.13768 26.977 4.37953 27.2188L6.90337 29.7427L5.99801 30.6543C5.9174 30.7349 5.81818 30.7722 5.70656 30.7722C5.59494 30.7722 5.49572 30.7287 5.41511 30.6543L1.35339 26.5925C1.27278 26.5119 1.23557 26.4127 1.23557 26.3011C1.23557 26.1894 1.27898 26.0902 1.35339 26.0096L11.2379 16.1248L15.8826 20.7695L15.095 21.5571L14.0346 20.4967C13.7928 20.2486 13.4021 20.2486 13.1665 20.4905ZM8.85052 5.7067L7.29404 7.26321L7.26924 7.28182L7.26304 7.28802L5.70656 8.85693L4.61517 7.76551L7.75913 4.62148L8.85052 5.7067ZM3.85863 1.63868C4.45394 1.63868 5.01204 1.86813 5.43371 2.28981L6.89717 3.75331L3.75322 6.89734L2.28355 5.43385C1.4154 4.56567 1.4154 3.15799 2.28355 2.28981C2.70523 1.86813 3.26333 1.63868 3.85863 1.63868Z" fill="#262F39"/>
</svg>
