<svg xmlns="http://www.w3.org/2000/svg" width="30" height="28"><path fill="#f5434c" fill-rule="evenodd" d="M28.784 27.97c1.798.516-.515-5.895-.515-5.895 1.03-3.08 2.05-13.595 1.41-16.8-.64-3.206-3.04-3.095-7.45-3.972C17.74.403 6.45-.112 4 .02 1.565.147-.225 1.81.025 5.15c.257 3.33 4.163 15.74 6.1 18.82 1.93 3.08 4.783 2.542 6.485 2.336 2.334-.288 11.12-2.336 11.12-2.336-.786-1.01 3.256 3.484 5.053 4h.001zM17 8.59l1.564-3.324h4.68l-5.116 9.742v5.74h-5.37v-5.74l-2.86-5.446-2.263-4.296h4.68l3.124 6.625L17 8.59z"/></svg>