<svg xmlns="http://www.w3.org/2000/svg" width="70" height="70" fill="none"><rect width="70" height="70" fill="url(#a)" opacity=".5" rx="15"/><g filter="url(#b)"><rect width="61.25" height="59.756" x="4.375" y="4.268" fill="url(#c)" rx="12"/></g><defs><linearGradient id="a" x1="35" x2="35" y1="0" y2="70" gradientUnits="userSpaceOnUse"><stop stop-color="#FAD32D"/><stop offset="1" stop-color="#E6A527"/></linearGradient><linearGradient id="c" x1="35" x2="35" y1="4.268" y2="64.024" gradientUnits="userSpaceOnUse"><stop stop-color="#FAD32D"/><stop offset="1" stop-color="#E6A527"/></linearGradient><filter id="b" width="61.25" height="61.756" x="4.375" y="4.268" color-interpolation-filters="sRGB" filterUnits="userSpaceOnUse"><feFlood flood-opacity="0" result="BackgroundImageFix"/><feColorMatrix in="SourceAlpha" values="0 0 0 0 0 0 0 0 0 0 0 0 0 0 0 0 0 0 127 0"/><feOffset dy="2"/><feColorMatrix values="0 0 0 0 1 0 0 0 0 0.796274 0 0 0 0 0.0583333 0 0 0 1 0"/><feBlend in2="BackgroundImageFix" result="effect1_dropShadow"/><feBlend in="SourceGraphic" in2="effect1_dropShadow" result="shape"/></filter></defs><path d="M216.019-146.019C167.667-194.371 103.38-221 35-221c-68.38 0-132.667 26.629-181.019 74.981C-194.371-97.667-221-33.38-221 35c0 51.582 15.212 101.126 44.038 143.582l-43.39 101.243c-2.843 6.632 4.272 13.513 10.815 10.396l96.843-46.115C-69.342 274.802-18.382 291 35 291c68.38 0 132.667-26.628 181.019-74.981C264.372 167.668 291 103.38 291 35c0-68.38-26.628-132.667-74.981-181.019ZM35 274.967c-51.553 0-100.69-16.112-142.1-46.596-2.356-1.735-5.558-2.039-8.199-.781l-81.945 39.02 36.766-85.784a8.013 8.013 0 0 0-.816-7.775C-189.865 132.5-204.967 84.764-204.967 35c0-132.318 107.649-239.967 239.967-239.967S274.967-97.318 274.967 35 167.318 274.967 35 274.967Z"/><path d="M176.05-124.934a8.017 8.017 0 0 0-10.61 12.021C207.873-75.462 232.211-21.55 232.211 35c0 108.743-88.469 197.211-197.211 197.211-108.743 0-197.211-88.468-197.211-197.211 0-108.743 88.468-197.211 197.211-197.211 34.673 0 68.768 9.122 98.6 26.379a8.016 8.016 0 0 0 10.954-2.926 8.017 8.017 0 0 0-2.924-10.954C109.359-168.377 72.487-178.244 35-178.244c-117.584 0-213.244 95.66-213.244 213.244S-82.584 248.244 35 248.244 248.244 152.584 248.244 35c0-61.148-26.314-119.441-72.194-159.934z"/><path d="M171.149 121.917 163.46 80.27a8.019 8.019 0 0 0-6.311-6.406L96.684 61.772a8.029 8.029 0 0 0-7.241 2.194L64.617 88.793C22.773 70.115-.349 46.945-20.716 3.309L4.035-21.442a8.016 8.016 0 0 0 2.192-7.241L-5.865-89.149a8.019 8.019 0 0 0-6.406-6.312l-41.647-7.689a8.01 8.01 0 0 0-3.231.066A59.162 59.162 0 0 0-85.905-87.2c-13.703 13.703-18.937 33.724-15.134 57.897 3.465 22.03 10.454 45.99 19.678 67.467a8.015 8.015 0 0 0 10.53 4.202 8.017 8.017 0 0 0 4.202-10.53c-8.713-20.284-15.308-42.883-18.572-63.631-3.015-19.171.562-33.997 10.633-44.068A43.14 43.14 0 0 1-55.132-87.07l34.612 6.39 10.187 50.934-25.652 25.652a8.014 8.014 0 0 0-1.651 8.937c23.32 52.224 50.677 79.559 100.937 100.858a8.02 8.02 0 0 0 8.797-1.713l25.651-25.652 50.933 10.187 6.391 34.612a43.16 43.16 0 0 1-11.206 19.436c-10.072 10.07-24.901 13.648-44.069 10.632-38.321-6.029-91.477-24.633-125.737-58.757l-.492-.493c-9.305-9.341-17.968-20.672-25.75-33.68a8.016 8.016 0 0 0-10.995-2.764 8.016 8.016 0 0 0-2.764 10.995c8.451 14.128 17.921 26.497 28.178 36.797l.496.494c36.988 36.842 93.768 56.828 134.571 63.246 16.27 2.56 33.749 1.36 48.085-7.402a52.89 52.89 0 0 0 9.812-7.731 59.155 59.155 0 0 0 15.883-28.758 8.039 8.039 0 0 0 .064-3.233z"/><path fill="#000" d="M49.272 18.354a20.306 20.306 0 0 0-14.453-5.986 20.306 20.306 0 0 0-14.453 5.986 20.306 20.306 0 0 0-5.986 14.453c0 4.119 1.214 8.074 3.516 11.464l-3.465 8.084c-.227.53.341 1.079.864.83l7.732-3.682a20.274 20.274 0 0 0 11.792 3.744c5.46 0 10.593-2.126 14.453-5.987a20.305 20.305 0 0 0 5.987-14.453c0-5.46-2.126-10.592-5.987-14.453ZM34.82 51.967c-4.116 0-8.04-1.287-11.345-3.72a.645.645 0 0 0-.655-.063L16.276 51.3l2.936-6.85a.64.64 0 0 0-.065-.62 19.037 19.037 0 0 1-3.487-11.023c0-10.564 8.595-19.16 19.16-19.16 10.564 0 19.159 8.596 19.159 19.16 0 10.565-8.595 19.16-19.16 19.16Z"/><path fill="#000" d="M46.081 20.038a.64.64 0 1 0-.847.96 15.76 15.76 0 0 1 5.331 11.81c0 8.682-7.063 15.745-15.746 15.745-8.682 0-15.746-7.063-15.746-15.746 0-8.682 7.064-15.746 15.746-15.746 2.769 0 5.49.729 7.873 2.107a.64.64 0 1 0 .64-1.109 17.023 17.023 0 0 0-8.513-2.278c-9.388 0-17.026 7.638-17.026 17.026s7.638 17.026 17.026 17.026 17.026-7.638 17.026-17.026a17.04 17.04 0 0 0-5.764-12.77z"/><path fill="#000" d="m45.69 39.747-.614-3.325a.64.64 0 0 0-.504-.512l-4.828-.965a.641.641 0 0 0-.578.175l-1.982 1.982c-3.341-1.491-5.187-3.341-6.813-6.825l1.976-1.976a.64.64 0 0 0 .175-.578l-.965-4.828a.64.64 0 0 0-.512-.504l-3.325-.614a.64.64 0 0 0-.258.005 4.724 4.724 0 0 0-2.296 1.268c-1.094 1.095-1.512 2.693-1.208 4.623a23.21 23.21 0 0 0 1.57 5.387.64.64 0 1 0 1.177-.505 21.89 21.89 0 0 1-1.483-5.08c-.24-1.532.045-2.715.85-3.52a3.444 3.444 0 0 1 1.55-.894l2.764.51.814 4.067-2.048 2.048a.64.64 0 0 0-.132.713c1.862 4.17 4.046 6.353 8.059 8.053a.64.64 0 0 0 .702-.137l2.048-2.048 4.067.814.51 2.763a3.446 3.446 0 0 1-.894 1.552c-.805.804-1.989 1.09-3.52.849-3.059-.481-7.303-1.967-10.038-4.691l-.04-.04c-.742-.746-1.434-1.65-2.055-2.689a.64.64 0 1 0-1.099.657c.675 1.128 1.43 2.116 2.25 2.938l.04.04c2.953 2.941 7.486 4.537 10.744 5.05 1.299.204 2.694.108 3.84-.592.284-.173.547-.381.783-.617a4.723 4.723 0 0 0 1.268-2.296.642.642 0 0 0 .005-.258z"/></svg>