<svg xmlns="http://www.w3.org/2000/svg" xml:space="preserve" viewBox="0 0 44.992 44.992"><path fill="#fbc135" d="M44.151 20.052c1.646-1.605.738-4.401-1.537-4.732l-10.739-1.56a2.775 2.775 0 0 1-2.089-1.518l-4.803-9.731c-1.018-2.062-3.958-2.062-4.975 0l-4.803 9.731a2.775 2.775 0 0 1-2.089 1.518L2.377 15.32C.102 15.651-.807 18.447.84 20.052l7.771 7.575c.654.637.952 1.556.798 2.455L7.575 40.778c-.389 2.266 1.99 3.994 4.025 2.924l9.605-5.05a2.774 2.774 0 0 1 2.582 0l9.605 5.05c2.035 1.07 4.414-.658 4.025-2.924l-1.834-10.696c-.154-.9.144-1.818.798-2.455l7.77-7.575zM29.45 29.269c0 3.6-2.618 6.246-6.873 6.246-2.727 0-4.772-.846-6.326-2.182-.382-.328-.708-.901-.708-1.5 0-1.091.926-2.019 2.018-2.019.6 0 1.008.245 1.337.519 1.09.927 2.236 1.418 3.735 1.418 1.581 0 2.7-.899 2.7-2.318v-.054c0-1.554-1.39-2.427-3.737-2.427h-.653a1.815 1.815 0 0 1-1.801-1.8c0-.573.246-1.064.899-1.718l3.711-3.737h-5.865a1.814 1.814 0 0 1-1.799-1.8c0-.982.817-1.8 1.799-1.8h9.3c1.228 0 2.127.709 2.127 1.854 0 1.037-.491 1.61-1.255 2.346l-3.737 3.573c2.591.436 5.127 1.8 5.127 5.345v.054z"/></svg>