<svg width="142" height="33" viewBox="0 0 142 33" fill="none" xmlns="http://www.w3.org/2000/svg">
<g clip-path="url(#clip0)">
<path d="M107.881 11.5995C107.881 9.36456 109.032 8.78637 110.835 9.20333V15.6969H107.881V11.5995ZM99.7296 8.6029V31.9919C99.7296 32.2199 99.8033 32.2922 100.036 32.2922H107.881V20.4948H110.835V32.2866H118.987V4.10522H103.295C101.946 4.10522 101.175 4.66674 100.62 5.48399C100.098 6.25121 99.7296 7.36868 99.7296 8.6029ZM47.6499 15.5968V9.00319C49.2485 9.00319 49.8267 8.75301 50.2235 10.2763C50.745 12.2889 50.7677 16.314 47.6499 15.5968ZM39.498 31.9919C39.498 32.2199 39.5717 32.2922 39.8042 32.2922H47.6499V20.4948C48.795 20.4948 50.6033 19.8221 50.6033 22.6908V32.0864H58.8572V20.6949C58.8572 19.2884 58.1429 18.0152 56.7143 17.8985C57.1055 17.6316 58.6531 17.0367 58.6531 15.5023V9.00319C58.6531 7.73561 57.9445 6.29569 57.3039 5.62854C56.5103 4.80017 55.5579 4.10522 53.9649 4.10522H39.498V31.9919ZM77.6154 32.2922H85.7672V20.4948H88.7207V32.2866H96.5663C96.7988 32.2866 96.8725 32.2143 96.8725 31.9864V4.10522H88.7207V15.6969H85.7672V4.10522H77.6154V32.2922ZM136.923 9.80377C135.919 9.80377 134.78 8.85864 134.78 8.00247C134.78 7.12406 134.684 6.71265 135.46 5.97323C136.753 4.74457 139.258 5.55071 139.258 7.60218C139.27 8.8642 138.227 9.80377 136.923 9.80377ZM121.838 26.3935C121.838 28.545 122.467 30.691 124.457 31.6194C126.951 32.7814 135.988 32.8203 138.521 31.6584C140.29 30.8467 141.101 28.9898 141.101 26.4935V4.10522H132.949V25.4928C132.949 27.3164 132.331 27.6888 131.214 27.6888C130.307 27.6888 129.99 26.4157 129.99 25.4928V4.10522H121.838V26.3935ZM61.6122 32.2922L75.0644 32.1921V27.3942H69.764V20.5003H75.0644V15.6969H69.764V8.90312H75.0644V4.10522H61.6122V32.2922Z" fill="white"/>
<path d="M137.331 7.70222C137.535 8.08027 137.847 8.3916 137.943 8.80301C137.302 8.75298 137.461 8.23038 137.07 7.85789C136.826 7.62439 137.025 7.70222 136.514 7.70222V8.80301H136.106V6.30677C136.849 6.30677 138.045 6.13442 138.045 7.00727C138.045 7.50208 137.807 7.6633 137.331 7.70222ZM135.086 7.402C135.086 8.71962 135.857 9.59247 137.008 9.56467C139.564 9.50907 139.57 5.60071 136.917 5.60071C136.004 5.60627 135.086 6.47356 135.086 7.402Z" fill="white"/>
<path d="M136.515 7.50209H137.025C137.909 7.50209 137.847 6.60144 137.331 6.60144H136.515V7.50209Z" fill="white"/>
<path d="M8.00684 27.6945C8.10888 28.0614 8.05219 27.9002 8.30728 28.1003L9.70182 29.1344C10.059 29.3623 10.3197 29.568 10.6939 29.7626C14.6734 31.8252 19.0554 32.4256 23.2617 30.363C24.4748 29.7682 26.3852 28.5618 27.2526 27.4832C27.3886 27.3109 27.4907 27.233 27.6494 27.0718C29.4578 25.3039 30.6312 21.9403 30.6312 19.1995C29.8262 19.7276 28.4657 20.8896 27.3093 21.6401L23.7209 23.8139C22.9102 24.2976 21.9295 24.709 21.0509 25.0926C17.7856 26.4992 15.3877 27.0496 11.8106 27.5221C10.6258 27.6833 9.44105 27.6945 8.00684 27.6945Z" fill="#E9128B"/>
<path d="M0.773438 15.5022C0.773438 18.332 1.18159 20.6337 2.66683 22.8408C2.98429 23.3134 3.99334 24.6644 4.41284 25.0257C4.9117 25.4538 6.26088 26.5768 6.78242 26.6992C6.36292 24.9257 6.27222 21.412 6.27222 19.405C6.27222 15.2298 7.13388 11.9997 8.37536 8.57501C8.60212 7.95234 8.86855 7.31299 9.15766 6.74592C9.56015 5.95646 9.46945 5.96758 10.0363 5.01134C10.3595 4.4665 10.6599 3.87163 10.9604 3.31567C9.59983 3.62701 8.25065 4.32195 7.08286 5.00578C6.76541 5.1948 6.55566 5.35047 6.23254 5.57285L4.6736 6.84043C4.37882 7.08505 4.29946 7.30187 4.01035 7.58541C2.49677 9.06981 0.773438 12.5445 0.773438 15.5022Z" fill="#A4CC3A"/>
<path d="M12.8994 1.90916V2.1093C13.5116 2.15934 15.2577 2.98215 15.9152 3.24901C16.8223 3.61594 17.9107 4.17746 18.778 4.6389C21.329 5.98431 24.033 7.88012 26.0738 9.876C27.8141 11.5828 27.5534 11.2992 29.1293 13.1784C29.4695 13.5842 29.7189 13.9623 30.0363 14.3848L31.754 16.8977C31.9354 16.5308 32.1622 14.3403 32.1622 13.701C32.1622 10.4431 30.847 6.74041 28.5681 4.52771C28.2903 4.25529 28.0863 4.04403 27.8028 3.77717L26.9185 3.04331C25.1271 1.72014 22.2247 0.408081 19.8324 0.408081C17.7123 0.408081 16.0003 0.463677 14.0899 1.36988C13.6874 1.56447 13.3246 1.80909 12.8994 1.90916Z" fill="#BCBEBE"/>
</g>
<defs>
<clipPath id="clip0">
<rect x="0.773438" y="0.408081" width="140.327" height="32.1009" fill="white"/>
</clipPath>
</defs>
</svg>
