<svg xmlns="http://www.w3.org/2000/svg" width="41" height="51" fill="none"><path fill="#f8d22e" d="m27.774 4.927-.059-.06H27.421v5.355c0 1.48 1.172 2.694 2.626 2.694h5.497l-.33-.34-7.44-7.65Zm-2.83-1.958v-.2H5.313c-1.454 0-2.626 1.213-2.626 2.693v39.74c0 1.48 1.172 2.693 2.626 2.693h29.372c1.453 0 2.625-1.212 2.635-2.682V15.494h-7.264c-2.82 0-5.112-2.359-5.112-5.262V2.969Zm2.12-2.394L39.431 13.29c.232.239.367.575.377.912v31c0 2.912-2.303 5.262-5.113 5.262H5.313c-2.82 0-5.113-2.35-5.113-5.252V5.462C.2 2.55 2.493.2 5.313.2h20.874c.32 0 .645.136.877.375Z"/><path fill="#f8d22e" d="M8.876 28.617v.2h3.701V25.023H8.876V28.617Zm-1.244-6.162h6.179c.682 0 1.244.567 1.253 1.285v6.362c0 .716-.56 1.284-1.244 1.284H7.632c-.683 0-1.244-.568-1.244-1.284v-6.363c0-.716.561-1.284 1.244-1.284ZM8.876 41.333v.2h3.701V37.739H8.876V41.333ZM7.632 35.18h6.179c.682 0 1.244.568 1.253 1.285v6.362c0 .716-.56 1.284-1.244 1.284H7.632c-.683 0-1.244-.568-1.244-1.284v-6.363c0-.716.561-1.284 1.244-1.284ZM19.999 25.023c-.683 0-1.244-.568-1.244-1.284 0-.716.56-1.284 1.244-1.284h6.188c.683 0 1.244.568 1.244 1.284 0 .716-.56 1.284-1.244 1.284H20ZM19.999 28.817h12.367c.683 0 1.243.568 1.243 1.285 0 .716-.56 1.284-1.243 1.284H19.999c-.683 0-1.244-.568-1.244-1.284 0-.717.56-1.285 1.244-1.285ZM26.187 37.749H20c-.683 0-1.244-.569-1.244-1.285s.56-1.284 1.244-1.284h6.188c.683 0 1.244.568 1.244 1.284 0 .716-.56 1.285-1.244 1.285ZM19.999 41.533h12.367c.683 0 1.243.568 1.243 1.284 0 .716-.56 1.284-1.243 1.284H19.999c-.683 0-1.244-.568-1.244-1.284 0-.716.56-1.284 1.244-1.284ZM15.36 10.714H7.632c-.683 0-1.244-.568-1.244-1.284 0-.716.561-1.284 1.244-1.284h7.728c.683 0 1.244.568 1.244 1.284 0 .716-.56 1.284-1.244 1.284ZM20 17.077H7.631c-.683 0-1.244-.568-1.244-1.284 0-.716.561-1.284 1.244-1.284H20c.683 0 1.244.568 1.244 1.284 0 .716-.56 1.284-1.244 1.284Z"/></svg>