<svg xmlns="http://www.w3.org/2000/svg" width="38" height="48" fill="none"><path fill="#f8d22e" d="M36.87 37.5c-.03-.203-.671-5.092-3.177-6.884l-.01-.01a13.11 13.11 0 0 0-2.567-1.326.77.77 0 0 0-.224-.111l-.52-.183c-.764-.293-1.599-.576-2.414-.83l-.478-.162a1.365 1.365 0 0 0-.194-.05c-1.192-.375-2.261-.658-2.821-.81v-.921a7.487 7.487 0 0 0 3.005-5.983v-.607c.101.01.193.02.295.02a2.256 2.256 0 0 0 2.261-2.247v-1.69c0-.466-.142-.911-.407-1.276.163-.324.234-.678.224-1.042v-.709a2.505 2.505 0 0 0-.55-1.69l-.02-.02a1.78 1.78 0 0 0-.56-.385c-.194-1.822-1.132-6.792-5.521-8.776l-.051-.051H23.1a10.113 10.113 0 0 0-3.667-.77h-.357a10.588 10.588 0 0 0-3.544.547h-.03l-.062.02c-4.91 1.792-5.867 7.066-6.06 8.99a1.78 1.78 0 0 0-.56.384l-.01.02a2.482 2.482 0 0 0-.591 1.7v.73c-.01.364.07.718.224 1.052-.265.375-.408.82-.408 1.286v1.63c0 1.073.734 2.034 1.793 2.257.255.06.52.06.774.03v.608c0 2.318 1.1 4.524 2.954 5.931v.962a62.44 62.44 0 0 0-6.295 2.025h-.03l-.062.02c-.967.364-1.904.84-2.79 1.417l-.01.01c-2.354 1.7-3.056 6.023-3.179 6.883L.03 46.256a.59.59 0 0 0 .508.657l.795.102a.583.583 0 0 0 .652-.496l1.171-8.787c.214-1.64 1.04-4.585 2.353-5.567a8.79 8.79 0 0 1 1.039-.587v4.606c-.703.324-2.088 1.245-2.088 3.512v6.225c0 .537.438.972.978.972h27.206c.54 0 .978-.435.978-.972v-6.215c0-2.257-1.386-3.188-2.088-3.502v-4.596c.336.172.672.375.988.597 1.497 1.084 2.24 4.465 2.383 5.568l1.12 8.371a.986.986 0 0 0 1.11.84.99.99 0 0 0 .856-1.103l-1.12-8.382Zm-9.38-21.835a.304.304 0 0 1 .275-.324c.081-.01.153.02.214.071.06.05.102.122.102.203v1.76a.3.3 0 0 1-.102.193.289.289 0 0 1-.214.071.302.302 0 0 1-.275-.263v-1.71Zm-17.326-2.227V12.608c0-.07.01-.152.03-.212h.092c.54 0 .988-.436.988-.982 0-.213.041-5.102 3.555-7.36v2.38c0 .141.03.283.102.425.122.243 1.263 2.358 4.37 2.358 3.116 0 4.247-2.115 4.37-2.368a1.02 1.02 0 0 0 .09-.415V4.419c3.006 2.4 3.046 6.944 3.046 6.985 0 .536.438.982.978.982h.092c.02.07.03.151.03.222V13.438a2.217 2.217 0 0 0-1.609.547H11.784a2.196 2.196 0 0 0-1.345-.537l-.01-.01h-.265Zm-.173 2.217a.311.311 0 0 1 .275-.324c.081-.01.153.02.214.071.06.05.102.122.102.203v1.75a.3.3 0 0 1-.102.193.321.321 0 0 1-.214.07.303.303 0 0 1-.275-.262v-1.7Zm10.287-8.523v-4.12c.51.06 1.019.182 1.518.344V6.14c-.377.496-.917.84-1.518.992Zm-3.483-.982V3.204a9.67 9.67 0 0 1 1.517-.243v4.191a2.709 2.709 0 0 1-1.517-1.002ZM8.514 36.912v-6.144c.438-.162.906-.334 1.416-.496v6.873c0 .537.438.982.988.982h16.287c.54 0 .988-.435.988-.982v-6.853l1.395.486v6.145c0 .485.367.9.856.971.132.02 1.242.213 1.242 1.822v5.244H6.426v-5.244c0-1.518 1.029-1.781 1.253-1.822.468-.09.835-.506.835-.982Zm4.033-20.974h12.977v4.292c0 3.058-2.506 5.548-5.592 5.548H18.12c-3.076 0-5.582-2.49-5.582-5.547v-4.293h.01Zm6.499 19.203 4.838-6.144c.54.141 1.355.364 2.312.647v6.51h-14.32l.01-6.53a72.069 72.069 0 0 1 2.26-.637l4.9 6.154ZM15.5 27.539v-.294a7.497 7.497 0 0 0 2.628.476h1.803c.876 0 1.752-.162 2.577-.455v.273l-3.483 4.434-3.525-4.434Z"/><path fill="#f8d22e" d="M11.254 38.563H7.159v1.822h4.095v-1.822ZM30.912 38.563h-4.095v1.822h4.095v-1.822Z"/></svg>