<svg xmlns="http://www.w3.org/2000/svg" width="40" height="51" fill="none"><path fill="#f8d22e" d="M19.5 6.255c-6.804 0-12.345 5.466-12.345 12.176S12.696 30.606 19.5 30.606s12.345-5.465 12.345-12.175c0-6.71-5.541-12.176-12.345-12.176Zm0 22.187c-5.607 0-10.161-4.492-10.161-10.022S13.892 8.398 19.5 8.398c5.596 0 10.162 4.492 10.162 10.022S25.108 28.44 19.5 28.44Z"/><path fill="#f8d22e" d="M36.838 14.925c-.603-.563-1.229-1.148-1.371-1.613-.165-.509-.011-1.364.142-2.197.242-1.331.527-2.846-.329-3.993-.856-1.158-2.403-1.364-3.775-1.548-.845-.108-1.723-.227-2.14-.53-.417-.293-.79-1.072-1.152-1.818C27.609 1.992 26.929.585 25.535.14c-1.35-.433-2.71.292-3.906.92-.768.411-1.558.833-2.118.833-.56 0-1.35-.422-2.118-.833-1.196-.639-2.557-1.353-3.907-.92-1.415.444-2.095 1.84-2.688 3.085-.362.746-.735 1.525-1.152 1.818-.428.303-1.306.422-2.151.53-1.372.184-2.919.39-3.775 1.548-.845 1.147-.57 2.662-.33 3.993.154.833.308 1.7.143 2.197-.153.466-.779 1.05-1.371 1.613C1.152 15.877 0 16.948 0 18.43c0 1.483 1.152 2.554 2.173 3.507.603.562 1.229 1.147 1.371 1.612.165.509.011 1.364-.142 2.197-.242 1.331-.527 2.846.329 3.994.582.779 1.481 1.136 2.414 1.33v14.232c0 .314.143.617.384.823.242.206.56.292.878.249a85.615 85.615 0 0 1 5.213-.639v3.204c0 .379.197.736.537.92.33.194.746.205 1.076.021l5.454-2.933 5.058 2.922c.165.098.363.152.55.152a1.08 1.08 0 0 0 1.086-1.071v-3.204c1.744.152 3.478.368 5.212.639a.9.9 0 0 0 .175.01 1.093 1.093 0 0 0 1.098-1.082V31.061c.933-.195 1.832-.541 2.414-1.331.845-1.147.57-2.663.33-3.994-.154-.833-.308-1.699-.143-2.197.153-.465.779-1.05 1.371-1.612 1.02-.953 2.173-2.035 2.173-3.507-.011-1.472-1.163-2.543-2.173-3.495ZM12.608 43.56a71.23 71.23 0 0 0-4.29.487V31.396c.549.087 1.042.206 1.328.412.417.292.79 1.071 1.152 1.818.46.952.966 2.002 1.822 2.64l-.011 7.295Zm11.6 3.485-3.95-2.284a1.089 1.089 0 0 0-1.076-.01l-4.39 2.359V36.819c.9-.13 1.778-.596 2.58-1.018.767-.411 1.557-.833 2.117-.833s1.35.422 2.118.833c.801.433 1.679.888 2.579 1.018l.022 10.227Zm6.474-2.998a96.401 96.401 0 0 0-4.29-.487v-7.294c.855-.639 1.36-1.689 1.821-2.641.362-.747.735-1.526 1.152-1.818.286-.206.78-.325 1.328-.412v12.652h-.01Zm4.653-23.68c-.801.747-1.624 1.526-1.953 2.5-.34 1.018-.132 2.154.076 3.247.165.91.352 1.937.055 2.338-.296.4-1.338.552-1.887.628-.132.021-.274.032-.406.054-1.12.151-2.272.303-3.139.92-.856.616-1.36 1.645-1.832 2.63-.395.822-.856 1.763-1.35 1.958-.011 0-.022.011-.033.011h-.01c-.462.152-1.384-.335-2.196-.768-1.01-.53-2.04-1.083-3.16-1.083-1.108 0-2.15.552-3.16 1.083-.812.433-1.734.92-2.195.768-.011 0-.022-.01-.033-.01-.494-.196-.944-1.137-1.35-1.96-.483-.995-.976-2.013-1.832-2.63-.867-.627-2.02-.779-3.139-.92-.131-.021-.274-.032-.406-.053-.56-.076-1.602-.228-1.887-.628-.297-.4-.11-1.44.055-2.338.197-1.093.406-2.23.076-3.247-.318-.984-1.152-1.753-1.953-2.5-.702-.649-1.492-1.396-1.492-1.948s.79-1.288 1.492-1.948c.801-.747 1.624-1.526 1.953-2.5.34-1.017.132-2.153-.076-3.246-.176-.899-.363-1.938-.066-2.338.307-.411 1.36-.552 2.304-.682 1.109-.151 2.26-.303 3.139-.93.856-.618 1.36-1.646 1.832-2.63.406-.845.878-1.808 1.383-1.97.46-.152 1.383.335 2.195.768 1.01.53 2.052 1.082 3.16 1.082s2.15-.552 3.16-1.082c.812-.433 1.734-.92 2.195-.768.505.162.977 1.125 1.383 1.97.483.995.976 2.012 1.832 2.63.867.627 2.02.779 3.139.93.933.12 1.997.26 2.304.682.297.4.11 1.44-.055 2.338-.197 1.093-.406 2.229-.076 3.246.318.985 1.152 1.754 1.953 2.5.702.65 1.492 1.396 1.492 1.948-.01.563-.8 1.299-1.492 1.948Z"/><path fill="#f8d22e" d="m22.232 15.043-1.744-3.614a1.09 1.09 0 0 0-.988-.617 1.09 1.09 0 0 0-.988.617l-1.744 3.614-4.028.52a1.088 1.088 0 0 0-.9.736c-.131.4-.021.822.286 1.114l2.94 2.76-.735 3.94a1.076 1.076 0 0 0 1.065 1.277c.175 0 .362-.044.516-.13l3.566-1.905 3.566 1.905c.373.195.823.173 1.164-.076.34-.249.504-.66.428-1.071l-.736-3.94 2.941-2.76c.307-.28.417-.714.286-1.114a1.106 1.106 0 0 0-.9-.736l-3.995-.52Zm-.241 3.972a1.075 1.075 0 0 0-.318.974l.428 2.295-2.085-1.115a1.111 1.111 0 0 0-1.043 0l-2.085 1.115.428-2.295a1.075 1.075 0 0 0-.318-.974l-1.712-1.602 2.348-.303c.363-.043.68-.27.845-.606l1.021-2.11 1.02 2.11c.165.325.472.552.846.606l2.348.303-1.723 1.602Z"/></svg>