<svg xmlns="http://www.w3.org/2000/svg" width="51" height="51" fill="none"><path fill="#f8d22e" d="M43.528 7.473C38.705 2.65 32.306 0 25.5 0 18.681 0 12.283 2.65 7.473 7.473 2.663 12.295 0 18.68 0 25.5c0 6.819 2.65 13.217 7.473 18.028C12.283 48.338 18.693 51 25.5 51s13.217-2.65 18.028-7.472C48.338 38.717 51 32.306 51 25.5c0-6.807-2.662-13.217-7.472-18.027ZM2.919 25.5c0-6.317 2.615-12.038 6.819-16.148l6.118 6.842h-2.674c-.514 0-.957.292-1.18.713-.01.023-.023.058-.034.081-.012.012-.012.024-.024.047-.011.035-.023.058-.035.093 0 .012 0 .024-.011.035-.012.024-.012.059-.024.082 0 .012 0 .023-.011.035-.012.035-.012.07-.012.105v.024c0 .035-.012.081-.012.116v15.938c0 .035 0 .082.012.117v.023c0 .035.012.07.012.105 0 .012 0 .023.011.035.012.023.012.058.024.082 0 .011 0 .023.011.035.012.035.024.058.035.093 0 .012.012.024.024.047.011.023.023.058.035.082.222.42.665.712 1.179.712h7.59l10.297 6.433c.14.082.28.14.432.176.024.011.059.011.082.011a.89.89 0 0 0 .175.012c.082 0 .175-.012.257-.023.059-.012.117-.024.164-.047.058-.024.105-.035.163-.059.432-.21.759-.642.759-1.202v-4.6l6.69 7.484a22.45 22.45 0 0 1-14.28 5.102C13.042 48.081 2.92 37.946 2.92 25.5Zm27.508-6.095v8.734l-8.01-8.967c.024-.105.047-.21.047-.327v-.596l7.963-4.985V19.406Zm2.662 3.27a3.327 3.327 0 0 1 3.141 3.315 3.32 3.32 0 0 1-3.14 3.316v-6.632Zm-2.662 9.842v5.196l-7.963-4.986v-.595a1.33 1.33 0 0 0-1.33-1.331c-.456 0-.865.233-1.098.584-.14.21-.222.467-.222.747H14.502V18.845h3.724l12.201 13.672Zm11.49 8.465-8.29-9.27c2.837-.362 5.032-2.78 5.032-5.71a5.764 5.764 0 0 0-5.581-5.756v-9.352c0-.573-.35-1.028-.818-1.226l-.105-.035a.861.861 0 0 0-.163-.047 1.912 1.912 0 0 0-.257-.024c-.234 0-.467.07-.689.199l-10.298 6.433h-.992L11.944 7.45A22.528 22.528 0 0 1 25.5 2.92c12.446 0 22.581 10.123 22.581 22.581a22.48 22.48 0 0 1-6.165 15.482Z"/></svg>